<mxfile host="app.diagrams.net" agent="Mozilla/5.0 (Windows NT 10.0; Win64; x64) AppleWebKit/537.36 (KHTML, like Gecko) Chrome/127.0.0.0 Safari/537.36 Edg/127.0.0.0" version="24.7.7">
  <diagram name="Page-1" id="IFtwWrZTed1WmIX0lrxp">
    <mxGraphModel dx="2202" dy="752" grid="1" gridSize="10" guides="1" tooltips="1" connect="1" arrows="1" fold="1" page="1" pageScale="1" pageWidth="1100" pageHeight="850" math="0" shadow="0">
      <root>
        <mxCell id="0" />
        <mxCell id="1" parent="0" />
        <mxCell id="CaOUmlFaGnciyHe8es5i-1" value="" style="rounded=0;whiteSpace=wrap;html=1;fillColor=none;" vertex="1" parent="1">
          <mxGeometry x="740" y="188" width="340" height="240" as="geometry" />
        </mxCell>
        <mxCell id="CaOUmlFaGnciyHe8es5i-2" value="" style="image;aspect=fixed;html=1;points=[];align=center;fontSize=12;image=img/lib/azure2/networking/Virtual_Router.svg;" vertex="1" parent="1">
          <mxGeometry x="840" y="202" width="25" height="25" as="geometry" />
        </mxCell>
        <mxCell id="CaOUmlFaGnciyHe8es5i-3" value="SRX4600 HA" style="sketch=0;outlineConnect=0;fontColor=#232F3E;gradientColor=none;fillColor=#DD344C;strokeColor=none;dashed=0;verticalLabelPosition=bottom;verticalAlign=top;align=center;html=1;fontSize=12;fontStyle=0;aspect=fixed;pointerEvents=1;shape=mxgraph.aws4.network_firewall_endpoints;" vertex="1" parent="1">
          <mxGeometry x="368" y="122" width="78" height="78" as="geometry" />
        </mxCell>
        <mxCell id="CaOUmlFaGnciyHe8es5i-4" value="INTERNET" style="ellipse;shape=cloud;whiteSpace=wrap;html=1;" vertex="1" parent="1">
          <mxGeometry x="505.25" y="139.5" width="230.25" height="260.5" as="geometry" />
        </mxCell>
        <mxCell id="CaOUmlFaGnciyHe8es5i-5" value="" style="sketch=0;pointerEvents=1;shadow=0;dashed=0;html=1;strokeColor=none;fillColor=#505050;labelPosition=center;verticalLabelPosition=bottom;verticalAlign=top;outlineConnect=0;align=center;shape=mxgraph.office.servers.tunnel_straight;rotation=-15;" vertex="1" parent="1">
          <mxGeometry x="575.5" y="375" width="89.75" height="15" as="geometry" />
        </mxCell>
        <mxCell id="CaOUmlFaGnciyHe8es5i-6" value="" style="image;aspect=fixed;perimeter=ellipsePerimeter;html=1;align=center;shadow=0;dashed=0;spacingTop=3;image=img/lib/active_directory/tunnel.svg;rotation=15;" vertex="1" parent="1">
          <mxGeometry x="580" y="172.5" width="100" height="20" as="geometry" />
        </mxCell>
        <mxCell id="CaOUmlFaGnciyHe8es5i-7" value="&lt;span style=&quot;font-size: 8px; font-weight: normal;&quot;&gt;VPN&lt;/span&gt;" style="outlineConnect=0;dashed=0;verticalLabelPosition=bottom;verticalAlign=top;align=center;html=1;shape=mxgraph.aws3.vpn_gateway;fillColor=#F58536;gradientColor=none;fontStyle=1" vertex="1" parent="1">
          <mxGeometry x="621" y="166.5" width="20" height="20" as="geometry" />
        </mxCell>
        <mxCell id="CaOUmlFaGnciyHe8es5i-8" value="SRX4600 HA" style="sketch=0;outlineConnect=0;fontColor=#232F3E;gradientColor=none;fillColor=#DD344C;strokeColor=none;dashed=0;verticalLabelPosition=bottom;verticalAlign=top;align=center;html=1;fontSize=12;fontStyle=0;aspect=fixed;pointerEvents=1;shape=mxgraph.aws4.network_firewall_endpoints;" vertex="1" parent="1">
          <mxGeometry x="361" y="423" width="78" height="78" as="geometry" />
        </mxCell>
        <mxCell id="CaOUmlFaGnciyHe8es5i-9" value="SITA ONAIR NETWORK&#xa;10.121.0.0&#xa;...&#xa;0.0.0.0" style="shape=image;verticalLabelPosition=bottom;labelBackgroundColor=default;verticalAlign=top;aspect=fixed;imageAspect=0;image=data:image/png,iVBORw0KGgoAAAANSUhEUgAAAgAAAAIACAYAAAD0eNT6AAAAAXNSR0IArs4c6QAAAERlWElmTU0AKgAAAAgAAYdpAAQAAAABAAAAGgAAAAAAA6ABAAMAAAABAAEAAKACAAQAAAABAAACAKADAAQAAAABAAACAAAAAAAL+LWFAABAAElEQVR4Ae2dB7j1RLm2P+kgTXrvIKAURRGVqohdQQERFfCo2OXosRw7igU9Niwoeo4iiIqKDRARC0URRFEE6dKkSe9Fyv8/D3xLFt+3914p7yST5H6v69lr7ZXknXfumSSTyWQyaxYGAQhAAAIQgAAEIAABCEAAAhCAAAQgAAEIQAACEIAABCAAAQhAAAIQgAAEIAABCEAAAhCAAAQgAAEIQAACEIAABCAAAQhAAAIQgAAEIAABCEAAAhCAAAQgAAEIQAACEIAABCAAAQhAAAIQgAAEIAABCEAAAhCAAAQgAAEIQAACEIAABCAAAQhAAAIQgAAEIAABCEAAAhCAAAQgAAEIQAACEIAABCAAAQhAAAIQgAAEIAABCEAAAhCAAAQgAAEIQAACEIAABCAAAQhAAAIQgAAEIAABCEAAAhCAAAQgAAEIQAACEIAABCAAAQhAAAIQgAAEIAABCEAAAhCAAAQgAAEIQAACEIAABCAAAQhAAAIQgAAEIAABCEAAAhCAAAQgAAEIQAACEIAABCAAAQhAAAIQgAAEIAABCEAAAhCAAAQgAAEIQAACEIAABCAAAQhAAAIQgAAEIAABCEAAAhCAAAQgAAEIQAACEIAABCAAAQhAAAIQgAAEIAABCEAAAhCAAAQgAAEIQAACEIAABCAAAQhAAAIQgAAEIAABCEAAAhCAAAQgAAEIQAACEIAABCAAAQhAAAIQgAAEIAABCEAAAhCAAAQgAAEIQAACEIAABCAAAQhAAAIQgAAEIAABCEAAAhCAAAQgAAEIQAACEIAABCAAAQhAAAIQgAAEIAABCEAAAhCAAAQgAAEIQAACEIAABCAAAQhAAAIQgAAEIAABCEAAAhCAAAQgAAEIQAACEIAABCAAAQhAAAIQgAAEIAABCEAAAhCAAAQgAAEIQAACEIAABCAAAQhAAAIQgAAEIAABCEAAAhCAAAQgAAEIQAACEIAABCAAAQhAAAIQgAAEIAABCEAAAhCAAAQgAAEIQAACEIAABCAAAQhAAAIQgAAEIAABCEAAAhCAAAQgAAEIQAACEIAABCAAAQhAAAIQgAAEIAABCEAAAhCAAAQgAAEIQAACEIAABCAAAQhAAAIQgAAEIAABCEAAAhCAAAQgAAEIQAACEIAABCAAAQhAAAIQgAAEIAABCEAAAhCAAAQgAAEIQAACEIAABCAAAQh0nsAjOp8DMgABCCwrBKvM1jL6fNSY5tf3BaVFpHG7cfY/t+rT32+a/XmVPq+Q/iHdKWEQgEBPCdAA6GnBkq3eEVhAOdpY2kh69GxtoM/VpYWkFHadnP5dOls6TzpX+rN0mYRBAAIdJ0ADoOMFSPi9JbCmcraN9BRpM8knfl/N52DXKog/SadJJ0knS7dLGAQg0CECNAA6VFiE2msCSyt3z5SeJfnEv5rUFbtHgbox8BvpZ9Kp0n0SBgEIQAACEIDAFAR8lf8u6bfSvdL/64ncQ3CI9CIp1e0JucYgAAEIQAAC3SGwgkLdR/q9dL/Ul5P+dPm4WXl0Y+A50nwSBgEIQAACEBgMgXmU0+2l70n/kqY7Wfb99yuV9/2ldSQMAhCAAAQg0FsCvq//Hulyqe8n9zL5c8/HLyT3CjAOSRAwCEAAAhDoBwE/pvcV6Q6pzIlxiOueI0avkxgrIAgYBCAAAQh0k8CGCtv3uz0qfogn8zp5/qeYeUDkIhIGAQhAAAIQ6ASBdRXl4ZIffatzEmTbWbOuFkMPkvTERxgEIAABCEAgSwJLKSoPartL4uQdy+BSMd1DYoyAIGAQgAAEIJAHAT/O9lbJ8+dz4k/LwI9LeiZEDAIQgAAEINAqga2U+l8lTvzNMfCtFY+t8IuOMAhAAAIQgECjBJZUal+XhjB5T66NG48P2KXRUicxCEAAAhAYNIFnKfd+PW6uJ8ahxXWkymKlQddIMg8BCEAAAkkJLCrvvuof2gm2C/n1+wZ2TFr6OIcABCAAgUESeLxyfZ7UhZPhkGP02ADmDhjkLkqm6xLgEZu6BNm+jwT8HPonpS4+i+63Cl4l3SZ5JkK/jMePKd4u3SItKC0keUzDwrO/P0qfS0ieuriLdqaC3lU6t4vBEzME2iJAA6At8qSbIwFfSX5N2j3H4OaI6QL9f4Z00Ry6TP97JsIq5kbAWrO19uxPT3L0BGlxKWdz42ZP6cc5B0lsEIAABCCQHwGf+P4i5did7qv546WPSy+QlpWatHmV2EbSa6WDJV9p58jJT2jsJ80jYRCAAAQgAIGJBJ6iNTyoLKeTmmfCO0DaVvLEQ7nZcgroVdJRUm4zIf5QMTEuQBAwCEAAAhCYnsBuWnSnlMPJ32/G+5jkLvcu3Z7z7QFz9PsQbpVyYHmq4lhewiAAAQhAAAJzEXinfml7Yh9fPX9LevJc0XXzBz866VsFHp/QdkPA4yM8hgGDAAQgAAEI/JuAXz3b5gnqCqW/r+Su9L7aZsrYQdIdUlusPXvgJhIGAQhAAAIDJ+ABYl+S2joh+crYE9gMaaCau+J9a8ODGdvgfoPS3ULCIAABCEBgoAR8X/1AqY2T0MVKd2/JI+qHasso4/tLd0pNl4EbH1tLGAQgAAEIDIyAT/5flJo+8VymNH3iz3Ekv8JqxVZVqr414PkKmiyPm5Xe5hIGAQhAAAIDIuBH6po82Xhw3wclz7yHTU1gQ/18ktRkudyo9B43dTj8CgEIQAACfSPwPmWoyZOMT2o+uWGTCbhnZg/pOqmpMrpGaa0nYRCAAAQg0GMCL1femnrUz1eX+0hDGuAXVXVWkKNDpKYaAX9XWswTEFV6+IEABCCQGYFnK56m7jMfo7R8EsPqEfATEtdLTTQETlM6zBhYr7zYGgIQgEB2BNZXRL4iT30i8dv39pW46heEIPMgwZOl1GVn/0dIXZp1UeFiEIAABCAwHYGltMBvy0t9AvG95B2mC4LfaxHwUxN+ZLCJ2zcfrBUpG0MAAhCAQBYE/Jz9L6XUJ//fKI0Vs8hxv4PYRdnz43spy9ONjJ36jZHcQQACEOg/gY8oiylPFvb9TWn+/qPMJod+osLzKaQs11vk/9HZ5JhAIAABCECgFIGna23fk095ovB8AtwzLlUsISuvJC9nSCnL1v4XDokWJxCAAAQg0BgBnyCulVKdINyweENjuSGhqQh4bMfvpFRlbL9+TwQGAQhAAAIdIeAr8qOlVCcGz+q3a0dY9D1Mz6z4fSlVWXs8wHP7DpH8QQACEOgLgTcqI6lOCHfLt+cTwPIh4CcEfiSlKvMr5dsvLsIgAAEIQCBjAusqttulFCcDd/t7FDqWHwH3BBwnpSh3+/xeflkmIghAAAIQGBFw13+qR/7cFfyaUUJ8ZklgEUWV8mVCnpUQgwAEIACBDAn8h2JKdQX49gzzS0hzE1hCP50upagHvhWw5NxJ8gsEIAABCLRJYFklnuoNch9vM2OkXZqAX+pzsZSiEfDF0tGwAQQgAAEIJCXwVXlPccD/hfx6NkGsWwQ2UbgpxoLcJ7+bdQsF0UIAAhDoL4FNlbUUE/74KnLp/mLrfc5ephymaBT+pvfkyCAEIACBDhDwwL8TpOgD/W3yuXEH8k+IMxP4ghZH1w37e9HMybIUAhCAAARSE3ihEkhxgN8tdeD4b4SA39FwohRdR86XT88/gEEAAhCAQAsE5lGaf5WiD+4HtZAXkkxHwNNC3yBF15NXpwsZzxCAAAQgMBOB3bUw+qB+uXzyqNdM1Lu5bI8EdeVS+fQERBgEIAABCDRIwCPzz5MiGwCe7GeHBvNAUs0SOFLJRdYX+3pTs1kgNQhAAAIQ8Mt4og/mXwVrrwmsqNxF3wq4TD49zgCDAAQgAIGGCPxR6UQ2AOj6b6jgWk5mr+B64zr4ipbzRPIQgAAEBkPgGcpp5MnfvnisazDVZ9avg+uPB6L6cVQMAhCAAAQSEzha/iMbACfLHwfwxIWWkXtPHOUZ/SLr0PYZ5Y9QIAABCPSSwOrKVeSsfx7495RekiJTMxE4TAsjGwA/mikxlkEAAhCAQH0Cn5SLyAP34fVDwkMHCayhmO+SouqSG6VunGIQgAAEIJCAwALyea0UddC+W77WSRAnLrtB4NMKM6ou2c9+3cg2UUIAAhDoHoGdFHLkAZtXu3avDkRGvJSc3RxYpy6RL89OiUEAAhCAQDCBH8tfVAPAg8DWDo4Pd90j8FmFHFWn7Geb7iEgYghAAAJ5E1hG4bnLPupgzaCtvMu7qejWUkKRg0r/r6nASQcCEIDAUAjsrYxGnfztZ+uhgCOfEwkcoTWi6tZN8uWxKhgEIAABCAQR+Ln8RB2kPYsgBoERgS31Japu2c+zRo75hAAEIACBegT8dr7I7n+/RRCDwDiBU/VPVCPgoHHHfIcABCAAgeoEIl/7e6PC4BWu1cuir1u+WhmLagBcLV88DdDXmkK+IACBRgkcqtSiDs4M0mq06DqT2KMUaWQv02adyTmBQmA2AVqtVIXcCHiO/qcHBsXMf4Ewe+TKPUO/DMyPX1iFQQACEIBADQKbaNuoq/9r5Gu+GrGwab8J7KHsRdW1X/UbFbmDAAQgkJ7A25RE1EH5wPThkkKHCSyh2O+UIuqb3zOwcIdZEPoACXALYICFnnmWI9/UR/d/5oXdcnieFtiPm0aYB5o+McIRPiDQFAEaAE2RJp2iBLYouuKE9W7T8pMnrMNiCBwTiODJgb5wBYHkBGgAJEdMAiUIrKF1Vy6x/kyr/lYL75lpBZZBQASOD6RAAyAQJq7SE2CAVHrGpDA3gdX100bSCtKK0nKzP9fRZ5SdEOUIP70mcL5yd6W0UkAut5WPQ6RFJI8veOTs7x5jcLvkXqlbZsvfz5OcvvUPCYMABCDQKwI+ub9E+oR0nHSdFDHoapIPrsYEGitE4Dtaa1J9Sr38VsXwJ8kDV3eWlpEwCEAAAp0jsKkifq90iuTX8KY+eM7p31dX80sYBIoQeK1WmrMOtf3//YrpDOmz0nYSt2sFAYMABPIksLrC2k+6TGr74PmLPBERVaYE1s+gzk7aZy5VjB+VHCsGAQhAoHUC8yqC50lHSZHvWJ90MJy0/MOtkyGALhHw7JPXS5PqVS7LT1Wse0r0cgkCBgEINEvAJ/69pIukXA6K43G8QHFhEChDwONTxutQF75frJhfJ/GyqzIlzboQgEAlAr5S2lU6R8r5ABkxorsSIDbqLIH9M6/TM+1vVyj2t0o0BDpb/QgcAnkT2Frh/Vma6UCUwzIfDDEIlCXgkfc51N86MZyrPGxfNuOsDwEIQGA6AotrwQFSG6P5qxwMfzxdRvgdAjMQWFPLqtS3HLc5UnlZbYa8sggCDxBgIiAqwkwEnq+Ffi55lZlWymzZ6ZnF00Y4nmBpA+nR0nrSktKisz/1MesmyY9K3iiNJqM5W9/99sSh2iXKuAcCLt0DAB6Yu430DumgHuSHLEAAAg0SWFhpfV3K8epmUkzPaZBTLkn55O7Jlnywv0CaxGi65e5CHk1E49nshmZ+fHQ6Nl39/bvKk3vxMAhAAAITCayqNfyYUVcPeMtNzGE/VvCATN/vPVTy1Xx0eXnK2m9I20pDsY8po9Ecc/B3sfL1pKEUIvmEAASqEdhBm10n5XDQqhLDpdWy3amtPCOcb82cJlVhVGWbvyitPSQ//tlne7EyV4VPF7a5U3l7VZ8Lj7xBAALVCeyjTXOazKfKQfWI6tnvxJbPUJRtPoLpqWn9NEhfbQ1lrEq969I2H+hr4ZEvCECgGoF3abMuHcSmi/Xd1bKf/Vae1+DwTMrofsXxTamvt1o8EHK6+tWX37+kPLonCYMABAZO4EPKf18ObL5C7ps9XRm6SsqtjP6pmHzLqG/2c2UoN9Yp4vmR8rlQ3wqP/EAAAsUIeBDZF6UUB5c2fPrKtA+PcI1Kz1donp3O+WqDZ5E0fcvIXcquS32xjyojRfLeh3U8Z0bfx3X0pV6SDwiEEviIvPXhIOZn2n2FfFIonXadLaDk/fhWV8rnUMU6f7vIwlJ/UYe4R9SPrym/fWrAhVWEITii4IdQynPn8TX66atz/9zKLz55XyhdPVu+B+vH2u6QbpY8enmm71rcK/Mz/b4yc9d/l+xoBbuL5PLqsq2m4C8tmYF/aX3XW9dl3xrxd9dd19tbJduS0iOlxaS1pUdLuYyjcK/H+yRsYARoAAyswJXdZ0s/ldqYBdLd2X+Sfib9QfK7BXzQxB4k4Ct/l80zOwrEjYAdJd8a6LL5BO7bSddK/n6l5BO75frq3/w5+s2PzlaxR2mjTaTtpKdJm0uuA23YW5ToF9pImDQhAIFmCPhg4yuSiK7DMj7cPf8qaXkJm5qA7/kfLpXhmuO6hyoPXb+wWEp5mFdq2tz7s4fkVxM3/e4NN9q2kTAIQKCHBNz9eI7U1EnjdqXlK4rHSthkAh/TKk2VTep0+vo45uRSjFtjFbnyINBbpNTlNfJ/hdLK5baEQsEgAIEoAh7sM9rRU37epXQ+L/mFNFgxAu7+bfqKL2UduEf52apY1llrAgHfJvCTFjdKKcts5NuPQbo3CoMABHpCYGflY7SDp/z8idLxICqsOAE3lHwvOWW5tOH7H8qTu9KxGAKuJ7694nE0qcvzPTEh4wUCEGibgF/uc4OU8qDhE9hL2s5oR9M/LHHZpCz3Sb6/0tEyyTnsbRTchYnrjHtwNsoZArFBAALFCHxfq006UNdZ/kv5X7ZYKKw1B4Gt9X8TV3R1yrfOtr6t8eQ58sy/9Qn49b7fk+qUzaRtT5L/rg/mrE8aDxDoMIGnK/ZJO3rV5T5xfUKat8N82gzd91nPkqry78p2p7YJuedpv1H589V6qrqwZ8/5kT0I9JaAn/NPdYLxQecVvSXXTMZepGRSHbjH/d6hdE6RPLnQl6QDJY/V8InZk/aMr5vqe1fnNRCe7O15itBP3KQoO9/a8yBEDAIQ6BiB/1S8KQ4Kd8vvizvGIsdw/5iofFzmbqB9S9pJWkSazvzcuQeIetphPweeor7Y54kSlo7AU+T6eilF+fmJHgwCEOgQAR/YUxwQPOXpczvEIddQt1FgKQ7W9nmE9OgKGX+stjlKShXXEyvExCbFCZhvikm+3Eu0UvEwWBMCEGibwNsUQPSB3Pf8X9l2xnqS/v8lKB8fqCNuy+wuPyluDXAlmb7yej6Ju6Toff9T6UMnBQhAIIKA5xK/TIo+COwbERw+HuiSvzm4fDwv/RMC2T5Vvq4LjvFa+Zs/MEZcTU3AjcDoff82+Vxm6uT4FQIQyImAr9KjDwA/k08eCYopZb8sJ7J8PMgvRfe6H1H0eI/IWHeQPyw9gYOURGS52dd+6cMmBQhAoA4Bn6T/JkXu/FfK37J1gmLbhxHw+xEiy+elD/Me+89rgmP13PZYegILKYm/SJH1zJOJ2S8GAQhkSsCjgSN3et/3f0amee1qWGcFlpEf7UttxymBqDrFnACpS+sh/xvqa3QPzq4PuecbBCCQG4EvKaCog7X9HJpbBjsez1KK342qiDLyY3uPaYCHxxZExjzTY4kNZGdQSXxcuY2oayMfPx0UPTILgQ4R8MQ/nrhjtLPW/fQjRSt3KP9dCDWyh8ZTwTZlRyuhuvVptP2mTQVNOg8MOL04sOw8v8TycO0PAU9HivWDgGdbWy4wK34//RWB/nBV7fn86bj9YLoFCX733AJRtl6UI/xMJOABou+buFbxFXyRsVvx1VkTAhBoioBnfhtdZdX99ICfxZoKfEDpfDSojHxv1y+EacrcsIyaKfC9TQVNOg8Q8Ls6LpDqHhNG258E1/4QoAegH2Xp0f/bB2blQPnyLQAsloDHAETYOXJyS4Sjgj6u0XrnFVx30mpRDCalw/IHCdynj8inL54kf4sCtx8EaAD0oxw3UDai7s356tKPqmHxBKIOnJ74p2n7e1CC9CwFgSzhxoN5ry6x/kyrzq+FW860Asu6Q4AGQHfKaqZIt51pYcllR2l9DybE4glEnfzaaADcGIQjikFQOINw8y/l8juBOd0u0BeuWiRAA6BF+IFJbxPo67BAX7hKQ6CN/baNNNPQG6bXyEd6nzZMhP3LNTt1P8rU07ZG2E1y8rMIR/iYksDtU/5a/seVym9Se4uoe/cemY41T+DPSvJvQck+Tn6ibmcFhYSbKgRoAFShltc2fknHCkEhHSc/HgOApSHQ5QbAukFIbgvyg5vyBI4tv8mUW/jJgqj6MGUC/NgMARoAzXBOmcqjA52fEOgLV3MT8HsVImx9OVk2wlFBHytrvXUKrjtptcsnrcDyZAR+E+g58rgTGBauyhCgAVCGVp7rRk6sQgMgbRlfHOTeV2DPDfJVxM1OWsmPmkbYZRFO8FGJgPdvz+cQYTQAIii27IMGQMsFEJB8VFecnyuPukcYkK1euoh6lM5wdmmQ0M6BaZ0f6AtX5Qh4bo9zy20y7do0AKZFwwIINEfAU8KOZumq8/nH5kIebEqPVM7vCSovl7XfLZDatlUCderV+LZ3ytf8qQPG/4wEOF7MiGdYC+kB6H55Rw0AjJrprftE0+XAgwAje1k+ni7UBzy72/9TgWmcIV9uAGHtEYjqgVm2vSyQchQBGgBRJNvz46vKCLswwgk+JhI4aeIaxVfw459vLb566TXfpy02K73V9Bv8cvpFLGmIQFQDgAmdGiowkoHATAR84h7vZq36/c0zJcKyMALPCCqvUTnfK38pBgTuKL+eR36UTsTnlvKHtUvgBUo+oizpyWm3HEkdAg8Q8BzfETv0K+HZCAHfA/e0uhFlNvJxs/w9JzD6F8mXb1eM/Ed8XiV/8wXGiKtqBLbVZhHlaR8LVQuBrXIhwC2AXEqiehxRXXG8/a96GZTZ0ldOh5fZoMC6fjXwT6W3S3Ue1/Px4AOSB4otIkXaYXLm3gqsXQKR+3nUsaddIqQOgQ4TiBpV7q5BrBkCmyqZqKuwOf2cKt/bVsjGDtrG08XO6S/i//vld8MKMbFJPIHHymVEmdrHqvHh4RECEChDwPP3R+zQLy2TKOvWJvC7oHKbruw96ctbpNVniHQtLfMgwtSx8H6JGQqh4UVbKL3p6kzZ35dsOHaSCybAPblgoC2489zqSwSku2iAD1wUJ/Bhrfrz4quXXtNPCFgHSJdIF0vXSTY/wuWT/2r+pwH7RANpkEQxApHd9rzXoRjzbNeiAZBt0RQOLOqeXuSBoXDwA17RL2Y5UfJJOrWtoQSsNuwYJereCCwPAlH7uSd1YkxHHmVaOYp5Km/JhrkQiGqFr5xLhgYUhwft3d/j/PoE8Y4e56+LWYvaz6MuPLrIsDcx0wDoflF6Dv8IY27vCIrlfJym1b9cbpNOrf0ZRfu3TkXc/2Cj9nMaAP2vK+SwAwS+rhjLDt6Zan2mAm6nsD1+46KgMpyqXNv6zfVp4XaQkuoMBI7Tsog68esZ0mBRRwjQA9CRgpohzKipPddSGtHPfs8QNotmE/AkPi+R/tUjIncpL7tLvk+M5UVgg6BwuGAIAtmmGxoAbdKPSTuqAeABoU+JCQkvJQn4VkCf7pW/Qfn5U0kGrJ6ewDpKImoMAA2A9OWVPAUaAMkRJ08gqgHgQLdJHi0JTEfg81rgR/a6bh9XBr7R9Uz0NP7tAvNFAyAQJq4gUJWA5+OOemmLJ4TB2iPgBvnhUsQ92jZ8eDzKI9rDR8oTCHxby6PqxdoT0mIxBCDQEIG/KJ2IHdsNiVUaiplkpiYwr34+WIoozyZ9fFUx06MoCJmaLxSiXkLl2UddTzEIQCADAu46jjrY+9l0rF0CPpH6lkBUmab2s79i5cq/3TozKfVdAuuTXzyFQQACmRDYSXFEHeT9QhgsDwKvVhh3S1FlG+3Ho/33krD8CfxEIUaV/1vzzy4RQmA4BJZWVqPGAfgg8dThoMs+p5srwnOlqIN3lJ+zFNOm2dMjQBPwbb1/SVFlv4mdYhCAQD4EzlAoUTs4XXz5lKsj8fwMn5PukaLKuKofn0j8ch/fU8a6QeAAhVm1vOfczi+UYqxHN8qdKAdEYD/ldc6dter/98vXYwbEritZ9bvco2Zyq1I3jlH663cFFnE+QGB5/b1DqlLeU23jJwkwCEAgMwKe4WuqHbbqb75niOVJYGuFdbTkhlrV8i26ndNwWk+WsO4R+KxCLlrWRdZ7bvcQEDEEhkHgdGWzyE5cdJ1nDwNbZ3O5oSJ3d/zlUtEyLbreqKvfs8dh3STgXrzIe///lL/5u4mCqCHQfwJvUxaLHuCLrOfBZwv0H1vnc+hnsn2Fvq90plSkbCetc738YN0l4McyT5AmlXOZ5R6HgkEAApkSWElx+R3sZXbqSet+MtO8EtbUBF4eVP4e7IV1l8BrFPqkfbvs8sd3FweRQ2AYBA5XNsvu2DOt78cLtx8Gul7kkgZAL4qxViY8WPR2aab9uuwy317EIACBzAlspvjK7tyT1r9CPj2aGMufAA2A/MsoZYSPlPOzpUn7dNnlu6YMGt8QgEAcgRSPiv1B4fngguVNgAZA3uWTMjqPBTlCKntyn7T+OfLJs/8pSw7fEAgk4C77STt1leVHye98gXHiKp4ADYB4pl3x+HkFWmW/nrTNHl0BQJwQgMCDBH6vj0k7dpXlh8gvjYB8axkNgHzLJmVkH5bzKvvzpG0ukl/295Qlh28IJCDwJPmMfD/A+IHiB/LN44EJCi3AJQ2AAIgdcuGueT+eN75/Rn5/WYdYECoEIDBG4Ov6HnkwGPd1rHwvOZYWX/MgQAMgj3JoIgo3wj017/h+Gfn9N/LNa56bKEnSgEACAsvJ501S5EFh3NcF8r1xgrhxWZ0ADYDq7Lq05aoK9rfS+P4Y+f0e+d6oS0CIFQIQmJuA390deWCY09dt8v/KuZPll5YI0ABoCXyDyT5faXmmxjn3xcj/PcU0BgEIdJyAHw06UYo8OEzly7cE1pCwdgnQAGiXf8rU3aP3DckvaJpqH4z67WL555FfQcAg0AcCqykTN0hRB4jp/Lg34L3SohLWDgEaAO1wT5mqR+G/XmpiH75b6XgAMQYBCPSIwM7Ky3Qn7ujf/dawfaSFesSvK1mhAdCVkpocpwf5vVq6UIreR6fz51uGGAQg0EMCX1OeptvxU/zuF8p8WlqvhyxzzRINgFxLpnhc7rF7j3SZlGK/nM7nT5Qeo/4FAYNAHwksrEz9TpruAJDqd9+z9Ijld0l+UQmWjgANgHRsU3peR85fK/1GSjV/x0z798VKdykJGxABWnsDKuzZWV1GnydL67aYdV/Z+N0CfsPYnyU/TniVdIeE1SPgBsCh9Vw8sLVHmbuuYLEEPCh3Dcm9YutLm0jbSb7qb8tc1ltK57YVAOm2Q8CDS7BhEXC3/HMkTxXc1gHeBzvL4xLG7Vb94/EDN4//2KHvHkB1pXSC9GPpcgkrR8AXJU+VXihtKHnku3/rsnlEvQfGWrlNnuXXBj9P4uQvCBgEhkLgycpo9DvDZ+piHNqyf4nvF6SmD/hdvgXgOnmKNLS60lZ+XUd9MYBBAAIDJLC18uyr7bYOQENI11dWTd5u6WoDwPe/fUIaQp3IIY/3irXrCgYBCAyYwGbK+7VSDgelvsZwifi6K7sJ62IDYBeBuV/qa/nnlq+7xNrMsYET8JuksGET+JOy/zTp6mFjSJr71eX9oKQpdNe52XxT6vp9/q6UgN8NsoP0/a4ETJzpCNAASMe2S57PVLBbSX/rUtAdi3VHxevBbdjDCeyrf/14KpaegAeo+rbfiemTIoUuEKAB0IVSaibGC5XMFtL3mklukKnsOchcT5/pRbRo1+kXsySQgOfh8BS/buxjEHiAAA0AKsI4gdv0z27SOyQPEsJiCTwz1l3nvbnXyY0ALB0Bjz/YX9pO4rHUdJw76ZkGQCeLLWnQPmB8SnqGdHHSlIbnfBVlef7hZXvaHK8+7RIWRBC4Tk6eK71bokEfQbRnPmgA9KxAA7NzvHxtJH1O8tSkWH0C3t88KQz2IIHFAJGMwA/k2bMMHpMsBRx3ngANgM4XYdIM3C7vfjvYEyVP2YvVI3CnNvcobOxBAp71EYsl8He58+Q+u0ge9IdBYFoCNACmRcOCMQI++XuA4D4SB+0xMCW/nlVy/b6vzoC0uBJ24/ID0mMkrvrjuPbaEw2AXhdvaOY8S9vnpbWl90g3Slg5An7dKvYQgTP09ZKH/uVbBQIeuPtpaS1pP+luCYMABCCQlMCS8r6v5G5GDxxEMzPwlMvLSqnt5Uogoiw8gKwJe5MSiYh3aD7cAPcJf+kmCok0IAABCExFwKPaXyQdK3mw4NAOxEXz69snTVjXGgCuP3+WinIc+np+i+cbpCUkDAIQgEA2BHx74EOSpxdmbveHTmqe6rYp61oDwFxWl+hJeqi+zNnIuVh8PiytJ2EQgAAEsiewsiLcW/qp5PuUcx7UhvC/G0Efl5oca9PFBoAQzVpNOl0aQr2YlEc/KeL95j+ljSXekyAIGAQg0E0C8yrsDaTdpU9Jv5KukSYdCLu63AMmj5I2k5q2rjYAzGk+6XXS+VJXy75M3G4gXiodJ31JerO0ueT9BYNAcgK0LJMjJoEZCCygZX5N7krS8pJ7Dbp8b/NGxe/pVn2f1t/bMDcADg1I+Hr5WCbAT1UXG2rDx0quGwtWdZLJdvcoDveC+cren7fO/u5n9u+QMAhAAAIQgEBtAl3uAaideRxAAALFCTR5b7J4VKwJAQhAAAIQgEBSAjQAkuLFOQQgAAEIQCBPAjQA8iwXooIABCAAAQgkJUADIClenEMAAhCAAATyJEADIM9yISoIQAACEIBAUgI0AJLixTkEIAABCEAgTwI0APIsF6KCAAQgAAEIJCVAAyApXpxDAAIQgAAE8iRAAyDPciEqCEAAAhCAQFICNACS4sU5BCAAAQhAIE8CNADyLBeiggAEIAABCCQlQAMgKV6cQwACEIAABPIkQAMgz3IhKghAAAIQgEBSAjQAkuLFOQQgAAEIQCBPAjQA8iwXooIABCAAAQgkJUADIClenEMAAhCAAATyJEADIM9yISoIQAACEIBAUgI0AJLixTkEIAABCEAgTwI0APIsF6KCAAQgAAEIJCVAAyApXpxDAAIQgAAE8iRAAyDPciEqCEAAAhCAQFICNACS4sU5BCAAAQhAIE8CNADyLBeiggAEIAABCCQlMF9S7zhvm8ASCmA1aRFpMWlRaSFpcelf0u3SLdLd0q3SddLl0n0SBgEI9IfAI5SVFWfLxwMfB5aUFp79/TZ93iX5eHCH5GODjwXXS1hPCdAA6EfB+iT/ZOlx0prSWrM/l9ZnWXPD4DLpIuli6TzpFOl0yQ0FDAIQyJeAj+kbS1tIG0ijY4GPCz7pl7WbtYGPA6PjwRn6fqp0voR1nAANgG4WoHfwHSSf9L2jryRF2QJytM5sjft0w8CNAO/8J0rHSr5KwCAAgfYILKiknyZtK/lY8ATJV/hR5l7ETWdr3Kd7C30s8MXBcdIfpP8nYRCAQDCBeeRvM2lf6RzJO1rbulMxeMffR1pRwvIg8HKFEVE3fIDH8iTgE/zzpUOkm6SI8q7r45rZ8TguN0owCECgJgFfiX9Sulqqu4Om3P5exefGwM7S/BLWHgEaAO2xT5myLwKeKf1Q8q24lPtzXd9ulHxZ2kTCIACBEgS8o28vfU/yibXuztj09lcp5v2lNSSseQI0AJpnnjJFD9RzL9uFUtP7ckR6f1Tce0vutcAgAIFpCPjK2TvKpVLEjte2DzdeDpXWlbDmCNAAaI51ypQ8rucLkkfmt70vR6TvWwRvl2gICAIGgREBX/HvIl0gRexoufnwI4XuzfDtDCw9ARoA6RmnTGEZOXcPmh/Fy21fjojHDYF3SQtLGAQGTeB5yv15UsSOlbsP37f0FY27NLF0BGgApGOb0rNPiB+WbpNy35cj4rtc+dxDeoSEQWBQBNy9d4gUsSN1zYcHNLLjp6vuNADSsU3leTs5zuXpnqaPJycq749JBRa/EMiJwHwKxgN6PNtW0ztabukdLwYbSFgsARoAsTxTevPjs0O9EBg/HnmOkQOkRVPCxjcE2iSwmhL/rTRe8Yf+3XMJuEFEN6AgBBkNgCCQid3sKP+eZnfox4Dx/J8rHpsm5o57CDROYCeleIM0Xtn5/hCPH4nNUo2XSj8TpAGQd7kupPB8tcv+PzUDP/XARUHedZjoChJgZ596J5/q4HeZmG5ZkCurTU+ABsD0bNpe8mgF8GdpqvrPbw/n8mNx4qKg7RpL+pUJrKAt/yCxYxdncI94vb4ycTY0ARoAedYDv7vjZonjQXEGfxev9fMsTqKCwPQEPKr1YomdvRoDd5HOMz1elsxAgAbADHBaWvRqpeuBbhwPyjPwrdNtJQwCnSDwdEV5o8TOXo/B98WQyULKV3kaAOWZpdrCg1v3lTgW1GPgOUReIWEQyJrASxUdLf16O/v4wfIE8eTRoHJVngZAOV6p1vYjv4dL4/WZ79V53C+WnkoYg0CWBHZVVL6HnfNO7ml53aXmAXfXSl2YdcyNgEdKWDECNACKcUq5VldO/n4M148iXiL5uNCFi5e3KU4siIArKlafwM5ycZiUA08PNPqtdJbk9wtYF0re0d2VNpV5et5VpXUkv7xnPWkLaUOp7Wf0t1YMR0qeNtnzo2MQyJnAvAruEMkXBDmYB9KdLPkZex8HfDzwBcDosWR9fZj5pWQefb+WNDoWeMKuLaXlpLbt0wrAFzIeJ4RBoHUCOymCNlvO7nX4ufQWyZNozCNF2TJytKP0eelyqc3ejV8qfcYECMIEe7mWR5TTdRPSYfHcBHzy9xswI/hX9eFy+6rk25ErSZHmhsBrpSMk9x5UjbHudr4d8CYJg0CrBNwqvkuqW6HLbu8dwF3jr5eWlZowNyx8NX6g5INM2Zgj1v+B0o1s4Mhd74wGQHtF+hklHVHPy/q4Vel+U3qO5Cv4JmxxJbKHdLR0r1Q25rrr+xjot6hiEGiFwJpK9Z9S3YpcZnt34X9PeqLUpi2oxL3zny2ViT9i3Y+1mfEOpE0DoJ1CelUL+8JVSnNfqe0Jc3ws3F9q+ukn90L4ViUGgUYJ+J55kyc/9zJ8Slqx0VxOTsxX4y+U/ipFnNyL+thL6WFTE6ABMDWXlL8+Q859K65o/a273sVK6xVSU1f7SqqQ+bj4XsnjkOrmsej2bgStJmEQaITAfErlOKloBa27np+HX6uRnFVPxPc+95aulurmt8j27gnZWsLmJkADYG4mKX/xffGbpCL1tu46PrH+t+QpxnO25RXcQVJTtwbOUFqL5gyE2PpD4MPKSt0ducj25ymdrTqGzfcFPyd5lG6RPNZZ5wql0dT4ByXVGaMB0FxRLaykzpTq1OOi2x6mdHIYhV+G7kZa+dSG+BxcJjDWhUAVAj4hp27VenCLW89dbtE+VfFfKBU9uFVd72dK4xES9hABGgAPsUj97UtKoGrdLbqd76u7TLtq7jF9l+Reu6J5rrrey7oKibjzJ/AohXipVLVyFtnO97O2zx9FoQjdG9DEI1FvLhTNcFaiAdBMWb9AybixXmS/rrrOz+V/hWaykzyVxyuF86WqLIps51sxHpCIQSCcgO/FF6mEVdf5k/yvGh51+w7fphDulapymbSdRwJv3H42s4mABkD6ovDz9Z5Jc1LdrLPcg349tqZP5ouoY6U6XCZt60mP3OuAQSCMgJ83nVTx6iz3o32LhEWbn6MdFNINUh1GM237R/nu28GyainSAKhKrvh2P9KqM9XHOsv8xM8ri4fSuTW9n/qRwTqMJm379s5RIeBsCSymyC6XJlW6qss/K99DuI/9GOXTtziqcpq03ZvkG3vwfvEkVkWWXwfMKQk8T78W4Vdlndvke7spU+3fj/soS6luoXhipD72pvavFnQgRx7VXmVnLrLNJzuQ/8gQ15OzVI0pPyIVPfVpZN6b8kUPQDrSHvV/kVRk3y67zpBO/qMSeo2+pHpi6IejRPiEQFUCj9OG90hld+Yi6/txwiHaOsr0ZVIRRmXX+fYQgc6RZxoAcwAJ/Pfj8lW2ThZZ3yP9nxQYZ5dcvVrBpmoEPLdLIIg1PwInKaQiO3DZdQ7ML6uNRuTbAT7oleVWZP2tG81JfonRAEhTJm64pniUzT6H0u0/Xcm8UwuK7Ntl17lQfnObLXE6BvyeGYFnK56yFa7I+sfI73yZ5bWNcLZRoikOqL9tIzMZpUkDIE1hHCq3RfbvMuv4HvieacLtnNdUcyrs3TkSBNw6AQ/K+4NUZmcusu6f5dODCrEHCbxSH0W4lV3nGQMGTAMgvvDXl8t7E9TVD8WH2lmPvijyxVHZfX3S+r7duGBnqRB4KwQ8ycekilV2uUemehAc9nACB+nfsiwnre/GmxtxQzQaAPGlfrhcTqpzZZd7kp+h1tHpSmhJLbhEKsty0vo8ITQdcX6fi4B3Sl+pT6pUZZfvPldK/GACnv/gb1JZnpPWH+oAIBoArlVxtpFcRQ9S80uzlo8LsVeetlJuontbrpRPP8GBQWAigWdqjUknl7LLvzEx1WGv4EGBdwRzP36gSGkAxBb8N4Prpe/7D7VxWrRkPhTM3MdrP3KIQWAigZ9ojbIn+JnWv1z+uO8/EfsDLwyZiWOVZb56G5rRAIgr8WXk6k6pSt2bbpuhPwFUpHQ8HuD0YO5/KZIw6wybwOrKfnT3067DRlo4997p/ypNd+Cs8vuXC6fenxVpAMSV5buD66NnV1w6Lrxee3qichd968W3FzAITEvAM/NVOdFMt80vp02JBVMR8DP87iKdjmfZ32+XL7+AZEhGAyCmtD1n/cVS2To30/qvjAltMF6+Fsz/u4MhR0ZLE1hIW7iFPtMOXGaZZxD040NYOQLf0eplOE9a9y3lku/82jQAYoow+kmg3yssDzDGihNwb8kN0qR9vOjyf8lXX16vXJwiaxYi8EKtVbQiFVnv64VSZaU5CayjHyKnXz51zgR6/j8NgJgCjn707+kxYQ3Oy/uV4yLH26LrDO2CYHAVpmqGvxVY0e6VL575r1oSs2ZFloVvKaxRPZTObUkDoH6R+dFUz9tR9KQyab2T64c0WA+LK+eRvQCe3h2DwMMILKj/bpIm7chFlx/8MO/8U5bAutrAjaiivCetN6T3g9MAKFvb5l7/xYF1z3VzyDNTzk23/C/7apNJ+3jR5R5YuHL5ENiizwSer8wVrUCT1vMVJ/f+69eWHwSWyZBuA9AAqF/3IsehnFY/nMF78EBeD+iddOwtupzbAIOvUrNmLSoGj5b8aMjRUtHKM2m94+ULq0/AV02TWBdd7kbZbtKTpDWkR0p9NRoA5UvWA4BXlZ4gPUe6RSpatyatxwQ0ghlg35CPSayLLv+TfG0rbSB5+uHB2hBGpa6i0vWOvdnsTw8yW0nyfb4U5gPwYSkcD8znPMrvhdKaifLte7znSGdKZ8/+9Ejt26Qum+uf31xX166Xg2XqOslse5/oN5c2lh4rbTj7M9Wjoq5LPta4rmH1CDxVm/+2notpt75LS/4p/V1y4+CPs3WRPrGOEfDO7IPg96WrpKKtwoj1fND0QQaLIfBeuYkol6I+/PSBB2x9VPKo7fmkrpnrftH8zrTedV3L+BTx+gLnydL7pV9L0bP6zcTPy74mYXEEzpKrScwjl/t4fpS0t8Tjg4KQq62owN4kHSf5Wc/ISlDG1xBnnhPuZOZuWXfflymDyHWvUdou020k90h0wWgAPNjj9ykVll8FG1kfyvraqgsVpkMxvqvF8rxPaf9OeoeUqldSrrEyBJ6klb8t3S2V3TlTrO/7h1gsgdPlLkVZlfXpk8l/S0vHZi/c21AbAB7X8XrJt3PKlm2K9a9VHPNKWBwB37NPUVZlfbox8FPpGdIQbqMrm/nY/ArlZdKpUtmCS7m+7/fR/S8IwfYh+UtZbmV936F4DpI8gDRHG1oDYBUVwv9IN0plyzLl+ofkWDl6ENMFmZWzG5xueKYaU9aDIovLwvZy5UFbKXfcqr5/GJdNPI0ReEKm5e2rgO9JuXUHDqUBsJTY7y+5QVZ1n0253c6KC4sn8Bm5TFluVX1fobg8VoBen/gyn7WFfJ4kVS2cJrZ7XYJ84/LBLjbfi2+iDKukcadi8xXo4pkUVt8bAAuK87ul3K74x+uOG4dLZFIf+hbGM5Whcda5ffcbTZ/VN+ht5cf3Ww+T2hwIVrSCPa4tSANI1yNxi5ZDW+v9QzH6fRJtW58bAFsKbi73+GeqZ39ruxL0OH0/5dWF88HPFedqPS6H5FnzgLorpZl2tFyWuRvSYxOwNAQ+ILe5lPWkOH6gWNt8ZKiPDQD3rvhpDF9ZT+Kfw/KDFSeWjsC5cp1DOU+KwdPL75kOQz89ezDFAVIXWnmjCuDbE1g6Au5SG7HuwqdvWbTVDdi3BoB71nIb+DWpDnpQGJaOgAdYTiqDnJZ7plk/qo5NILChlndtZ3dF+9yEfLG4HgHfCspphy4Si69W95PmrZf10lv3qQHwBuX+LqkI75zW2bx0qbFBGQJv7mCduFox+xYWNg2BZ+v3m6WcduSisbxqmjzxcxwBj7ItWh45red7ge7Vasr60ABwo+n/pJzKsWgsbvh5TgIsHYHt5LpoeeS0nhuze6bD0l3P+yj0e6WcCqtMLE/uLvrORP6LDtePXyn2BRoi3YcGQNe6eMePFX9vqJyHnMxyyvw48659/4Tin2fIBTjKuyEcKHWtAMfj9VgFHvkZlWi6T99mGefete8fTIfmYZ673gDYo+PlfOTDSoN/UhHwOJuuHQPG4/2R4vcjra1am60QT6HoGdW6PmDmcuXBty6wtAS6/miVn11fLS2izntfWDn4dMdz0fV62hX8Xee8o0AfIbXaCGirAeCT/xelV0tdt65XxK7w7zpn7+iewhqbnoDnUVhm+sWdWHJWJ6LsfpBndz8Ls56rPLTaE9BGA8An/y9IHuHbB+tDRexCOfSB8wu6ALrFGPvApw/1tMUqUDjprl8QjDLqwe+HS63MI9NGA8CPRr1xlPuMPv0a4RulO0rG1JeKWDLbja/uSTX8JEBR8/02l6flcRo52Fo5BJFxDGtmFJvrm+uOR/UXNdczT1KDpSdQ9rh7t0JyeXokfm72QgX0DckXx43afI2mNmvWbkrvPQ2nOZ7c7frnROkMyRXoHOkS6TbJFWRkbo159jE/f76S5Hu31qqzNfp/Mf1ftiJqE6wiAbNeUfIztZdK/5ity8b+9+CgW2ZLH/82j8J3+fkkvI70RGkLaX2pqR3P3dvzSD5RYHMTWHbun5L+cpG8/146TfL8Ix7B73o150nCj/UtIbn8Rvu+69Louz99nPC2ZS8gtAlWgcDouOt3ccx5LPDxwMcGj8+6XvLxYM7j+6L6zeXm/X9DaWNpG+lRUhvm24O+fbR/G4k3keZmSsQ7x/hIyCa+uzIY6nZS9KNYS8pn040oJTlY884ZXYY+6bxK8uhtH/hT1kk3TlJbl58COFVwUvL3o8a/kt4s+QQeafPKmRsIWHMEonm7DH1R8EHpXCllXZzK931K83lS78xXbW6RTZXpFL/do7Q8J7vvr7hQMQgUIbCcVnqX9HcpRb08qUgQNdfpcgPgkETcr5Lfj0ir12TL5sMisKWye7DkXoYUx4OpfPqJsg2k3pi7PI+Xpsps9G9uQX1LWk/CIFCVgBuNe0gXSpF19J1VAyqxXZcbALsE875S/t4i+QkMDAJVCaysDb8o+TZC5PFgOl++Nb2w1At7q3IxXUYjfz9W6fheDgaBKAK+vfMmyQPC6tbVW+VjeSm1dbkBsJDg+H5uXda+YvugtIiEQSCKgMcMfEeqWz+LbP/ZqKBn8vOImRYGLPMAi9OllK2ZG+T/bdI3JWxuAj6JrSW5LFaQPHDRB0Y/9WBdK10inS81cY9ayXTOzO1z0ktqRP5ubeuxKKnNDYBDAxLx4Knoe6xFwtpNK/kgW9V+pQ1fJ7n3BpuagI8J7iVdU/LV7WhsjY8Ht82W+Z0nXSdhDyfwfP17oLTKw38O/e9+eXuadEKo1waduZKdIhVp7VRd55fy38RVVYPYaiflWy5bSftJv5W8Uxfle6nWPVzaS/L9cOzhBPbUv76SL8pztN6PtI3LpQl7uRIZpVvns80DvxtbZWN3PX+X9AgJezgB170tJB8TfifdIRXl69so35ZeLXGsFYTZtrg+U/cGXKQ0Fh0l2LXPdyjgopWs7HpuHX1SmrdrUBLG69aod/BLpLI8p1rfAyk9Mn5HqamTl5LK3h6tCP8gTcVsqt++rnUXbDBXfWgAuL65Lns/n4rpnL9doPV8gsMeTmAl/fsh6RJpTmZV/vcx4WjpxRLHBEGQuffZXKrwLLKNxx50zvxolUczFslg2XU8EMPdhNiDBNbUx1clcynLsuj6Z8v3yySurgRB5nki3i5dLU3H8Ewte4HUtPWhATBitqW+uBdrOsY+xnxU6uxVkmJPYSvL6Veku6Tp2NX9/Vz53kviIuzBrvpU5zs3Ljr3VIBbLXUr2FTb3ym/z5WwWbMWEoQPSGYyFasUv52qtJ4oYQ8SWEAf20r/LR0g/Y/kZ8wfK7VlfWoAjBiupS++r/8x6QvS+6VnSx7Lgj1EwPXxfZLv46fY/6fy+Seltbk0dPNx0eNmpmJU9zf3xHbG3EVa5r5zUTi3y+/2naGQNtBN5N4t8KLsItdzi/TDkq+CsfwI9LEBkB/l/CJyo/PPUuS+XtSXH79243foxwQfl/+ZqAy2k99O2I8VZdGKU3Q9VzDfi8ZmzdpbEJq86p+ujE5QHAwUzK9G0gDIr0xSR7S7EvAF0nT7alO//14xrJo6s5n730zxpeiBceMu+3EXmyrIFJXtLZkXehPh+f77xxPxrVpmlyoe9/hg+RCgAZBPWTQRyYeUSNX9N8V2/1A8j2ki4xmnsZNi80VrNN8XZpznB0I7OEGmv5R7phuIzyd/D/SLrlAR/tzltVEDDEiiGAEaAMU49WGtzyoTEftwtA/PzeJ74kO2dyrz0Vx/kzNQdwdHd02fJZ8e7DZ08/216MoU6c+NgHWHXkiZ5J8GQCYFkTgMPyYZuQ9H+7pO8W2QmEHO7n3RdrQUzdW97FnavooqMrN+hGXjLHPabFD7BHONLKNxX541bIlm0ZDaFARoAEwBpWc/vUr5Gd/3cv1+ieJctmfsy2Rnea0cPSjw4DIBNLXugkpopmeiq1TQ/2oq+IzT2UKxpXiiokp5FNnGA0Dd8sXaI0ADoD32TaTsQWbRPa1F9u2q6xyjeLMfvJaw4HaW76rsptrOF8YrJIy3kmsPepgq2Kq/nS1/Q3+kZHExuCSYa9XyKLOdn9fG2iNAA6A99qlTXlgJnCuV2R9zWPcdqcFk7v/Y4DJ7a275/XZwBp+VWwZbiOdzwUybOhDcoriH/ihQC9Xl30nSAPg3it59+YRy1NR+HJnOHYp7jd6VRvEMbahVPX9KFNOTiyedfk23Sn3Qj8qcu4yGbpsIQGSFiSqbon6+NfQCbDH/NABahJ8w6bXlO+V030X37arr/SQhmy64/oqCrMpuzu38jozVcsn0iwMz5oxumUvGWozDO8uchd6l/11BH98ivyEnTQOgn6X/XWWrS8eAqWLdop9FUyhXa2ityIs6v4QoC/uOopiqsKv8dkoWOWo3CE+ikWISiSrlUWebw9vFONjUaQD0r+j9LoR7pTr7Yw7bHtm/oimVo8hG3O9LpZxoZY/4jnwBgkdMDt2+IQA57Kx1Y/ABa/WhF2YL+acB0AL0xEl+Qf7r7o85bO+ewfUTs8rZ/RMCy9Esl6qb2bqPZ3hwQ+0gZmfiGn36MbIh2yOV+ZSNIFeaq6QzpAskD85JZfPK8StSOccvBAZCwG/481z/qcwNg6ulv0qey+N2KZX5gnHIx4Q/Kv+nB8E1y6fU9TVfE+/POwAAFm1JREFUTQdb1dx+fPPv6x9fNQ7ZdlLmF00AwDu2pw312ALv7CPzSdpl6J1yD6lufZCLh9kr9Z8bdlhzBJ4UlNRC8uMXT2HtEvAMm1EXWeM5uUj/fEbyRdcVYwt8THiy9DLpVVL049juoXqf5IbHEO27yvTjgzL+VPk5KshXJTeHaquoriVnZuh2mABE8bQfN6jeKRU5sbs3xz0DkenjC57UgbzqwH3axz8ouWdhkq2jFU6TostwyO8OWVU83RMbwfQk+WnVLlbqERm5XH7cpTF0u1IAInjah2cQfF5JoO59+LUUFQN+YEkdyKcO+IJgl5LHBD/mfXTwMeEtJWPo2+onB/G8S37cU1fZ6owBWEaprlE55YdveLz+9YFiyLa2Mr9iIID/lK+y3UO3aZudpb8HxoErCEAgDwLvURi+1VrGPO3wbpJnZ42yraIcddSPL7IibEE5qdWbUqcB4HtTUXZilKMO+3EXfJT9QY6+XNHZDdrOjQcMAhDoD4EzlZVPVczOrdru9RW3nWqz9af6cUC/RXbd+zZNZavTAKiV8BwRRwKZw3Vn/l0vMNJ95atOj4p7DqJGqwZmC1cQgEBFAvtpO997rmq+SIu6UPPF47xVA+nBdr9THnw7JsJqnYfrNADWjohePm6Wzg3y1WU3HhwSYeb5qwBHRwT4wAUEINA+AXfj/ywgjKhjgruulwuIp6sufKs16pZKaw2AWgmPlZyfR69ztTrmqtNfFwuK3lfuHgBY106p64DtIQCBLAi4+z/i+f7IY0LU8S4LwBWCOL/CNlNtUutCvE4PwJpTRVPhtwsrbNPHTaKe//eTBBF2RYQTfEAAAq0T8ORfERZ5TBh6A8AXvhG2Vh0ndRoAj6qT8Ni2USDGXHbya1QvyHxBuZ8/yA9uIACBdgnkeEy4r10kracedeG7ZJ2c1GkAeNraCItsVUbE05YPj7SNsJUjnMhHlJ+gcHADAQhUJBC1L0f5cTZ8H3zIdnlQ5j1PQ+UGXp0GQFQXztArwqge3DL6UvPzCdo+4nbCtjXjYHMIQCAPAo9VGEsHhLJtgI+Ri6jj3chf1z4jz3uVL8brNAAqJzpHSUWCmMN1p/69JChazwz1wpq+/IjOzjV9sDkEIJAHAV8h1t2fPVPrrkHZ8TH/2iBfXXUTed6rfMFXtQGwgKhbERYJIiKetnz4hT1R9kE5qnMP/5Xafp2oYPADAQi0TuD9imCRGlG8RNtuXGP78U09Aj5qzNO43y59j7rl6zxX7o2v2gCInMRh6INBRpX2b6MvAZ/rysfHKvrxYyX7V9yWzSAAgTwJ+P79pyuGtoq289tEoyzyWBcVU9N+oiYCctyVz8dVGwCeWCIqA1G3EpouwOj0PBgyamSoY3u79FZ/KWGrad0jpYj7hSWSZVUIQKABAq9TGu4JKGN+P4mPCSuU2WjCuidMWD6ExZWv2qeAU7k3oWoDwDFETCxhP5XvX3jjntlvgvPzGfk7WFq2gF+PGzhN2qDAuqwCAQh0k8CHFfZ3pSIvHnuW1vMxYVMp0qJehhMZU9O+Is97lW+j12kAVE50DtKRIOZw3bl/f5og4j3l0z0L7sLbVho9N+oxAmtJvio4WfqxNOTpOZV9DAKDIOD7+RdIX5SeLo3mdPFgwTWk10jHS8dIkY/+yd2ss6SL/WXgFnneq3wurvz8oAqvcrfDHAVf5Op0jk16+++xytk1UvSJeHH5/M/Z0sesOyQ/P+qRvSntajl3WhgEIFCdgK/Wvb9Gmm+9vnG27Ne3dT1Hf52LQvuZZIdOWmEgy6POe572PWLq99LY3TXkkZx19b+lU+73Bu62r8s0h+194mcsQb/rKrlrhsC+SiaHfbpuDD5RRfcoNFMC8am8N6hMr6sTWp3WngetRRiPmz2c4uf0bystuoeHUfu/Q+Th+tpecAABCBwkBHf3AMNhykPUeaPrONYNysDldfzUaQD4HlKERYGIiCUHH5cpiG/lEEiNGNyA+USN7dkUAhB4iIBf5uNGQJfNj3vv3+UMBMcedd6LOg+Xzt7e2qJul9Boe9/jwh4isKq+eozFiE/XPiOfGX6ICt8gMFwCyyvrN0tdOxaM4v3ycIturpx77J2nQh6xqfNZdb6XuYIq+8N2QRlw5ncum/gA1n9nIN86Fazstlcq7tGTBgMoJrIIgcYIvFkpld0fc1jf96kZD/RQNXliYDn+x0Num/3mq9SoynVAs6F3IrX5FeUfAhlHldVMfu5XvM/vBF2ChED3CHjGt5OkmfbBHJe9pHuok0b8X4FluFXSSGdw7kfIorqk/jJDOkNetJYyf6OU4049VUyfH3JhkXcINEDAF14eXDvV/pfjb10fu5CiSH8SVH6+4Ip6nLBSPo8JyogrbtSgiEoZyXgjX1F72uUcd+7xmH6mGN1rgUEAAmkJ+KrPj9mO7385fj9FMUbPX5CWbHrviymJqLI7O324M6fwHi2Oqnh+LhKbmsAe+tmtvSjW0X68o3tiEQwCEGiGwPOUzD1S9L4c5c+j05drBkWnUnl5YJl9pe2cPzUwM2e2nZnM03+r4suxEfBXxfWozNnlEp5fp/o+6QfSL6UfS35i4pnSAtIQzI8eby35kbAjpBGH/fTdxxOsOIG9tGqOx4TzFdfqxbMxqDU93XtUI+tlbZPz1JFR3RmGslnbGco8fbce/Yx9VAWq6+f3iqXVe1CZl9covMfqy6+kmXhfquWvGG3Q089nK1+eC34mDqdrubu4sWIEXqzVIo/BM5VNkWWeIZYr/6nLzo+73y0V4VhknVWnTqbZX38dmKFvNxt6J1PbVlFfIRWpICnX+V/FsJCEzUxgdy2+UypaFt/Qun3rDfCA4Y9IRa9W79W6b5ewYgSeotX+IRWtY6nW+6Zi4Fbg9GX2scAy+vv0yTS75C2BmbpHvlZvNvxOpuYW9tFSqh15Jr8egdx611NHSm1HxemT2Uw8p1p2cEfyVzTMD1VgYC4+tmDFCCyj1XxLZar6lPq3m5TuXhI2PYFFtegGKaosPj19Us0ucbdGlYPcdCAOaDb8Tqfm7j9PHTwdy8jf71M6h0jLS9hkAitplTo7/F6Tk+jEGk9TlEWv/Oesr+4u3bQTucwnyBcplIukOVmm+N/l6mnLV5CwmQm8TYsjy2DzmZNrdumvAjPnnX6dZsPvdGqLKPp9pFRdgD7xe7Da4ySsOIEvadU6O7zLsw+3WP5Yk8PPiiNnzdkEPDbLx4RUFwc+8fuY8EQJm0xgKa1ynVTneDC+rbv/fVstG9tbkYwHWPe7KxdWjoB3+pdKPmBG9MhcLj//IzE/gyCUtPW0/l1S3f3ghSXTzW11X73XZeDtn5VbxjoSj+fl8Cx8Pib49mrdsvDYIx8TNpSw4gQ+r1Xrsh/f3uNpsrKlFU306PTts8pht4JZTuG6MfBV6UzJvSrjFWiq79dqnZ9L75eeJM0rYdUI/FqbTcW47G+tP+dbLfv/3uq/gzicKz99Gxj5b0gNffEYgd2kr0l/kYocr6/ResdJ75OeInFMEISS5sZSEdZljg0bl4xh2tUjuxEOUyq7T5tS+QXuAt1EurH8pmwxBwHvuGtIK0oejLKYZDNbD+oza3dRYfUJvFYuok7cPvjuUD+k1jx8VSm/Jij1j8qPT0RYDAE3qFaWVpGWkDxjn3sOb5U8duViiWOvINSw+bTtbyVfUEXZ7+RoyyhnkX4eL2dlWjFF1j00MkB8QSAxgXXk3wfQInW7yDqnJo43tfvvBLLwyclXoRgEukLgIwq0yH5eZp0X5Zz5yMGAIyiRvQo5syO2bhNwr8oZ0qjeRnwe0W0ksz4VzMM9VSt1nAnhD4PA1sqmG60Rx4GRjwvkz7252dpzFNko2KjPO+Rz82xzTGAQeHCnPFIgour8yI+ny+2y+XbIKC9Rn6fJ5yJdhkLsvSewlnLo8RNRdX7k5/W5k/OYgklTfY4yU+bzavldI/fME99gCXxaOS9Tn4uuu1nHiXrOiH8lYPN9+Ywcv9RxzISfEQG/F+Ucqeg+XnQ9D9LuRMP3hQkyb0h/k3xAwSCQE4E3KpiiO3GZ9Xw7oQ/2I2WiTL6LrvvJPsAhD70i8Ejl5nipaB0us95bukTqF4kg+HGgVboEglh7TWAf5c6TopTZkYuu+7yekNtQ+bgnEaMD5XeennAiG90msITC94j/ovt3mfXcozB/l/BsomCjB0CMgHkWpDW7BINYe0fA3c/RA9xG9dufbkD3yQ5SZsbzF/ndTxowR0Cfakv38uI5Fk6TIuv1uK/ndg/JrFkpd3oPsPAc4xgEmibgk803pPEdNPK7r5Yf23SmEqfnialukiI5jfv6uXz7CgyDQNMEPNvlRdJ4fYz87rrdSfNO70lmImGM+/KB8r86SYagu0pgDQX+B2m8HkZ/94Q3fbTXKFPRrMb9XSz/W/YRHHnKlsDLFdkd0ng9jPx+l3z7FlpnbRdFHglkKl9uIa3RWUIE3hUCeyrQG6Wp6mDUb2fL/4JdAVIyTt82OVaKYjWVn/vk/wCJWwKCgCUj4JH+KXu4R3W7Fxe43xSsUYZSfd6qNDxKMutJEhQf1j0C6ynkn0mp6u7Ir8fMbNE9PKUiXlNre18d5TnVp3tpeFNdqaJh5QIE3Ij1Vf+1Uqq6O/Lr94n0YoDr4srIxQ0AMziPltxN6gU45QNrj8CKSvpzUorn2Ec7+fjne9vLaqMp+wA6nu9U390b4IuPtRvNHYn1lcCzlbHUt/9G+4J7GlftE8itlBlf4YwymPrzTKW1l+TnMjEIlCGwgVb+knSnlLqejvz7NtaQGq3/2yBbjxU6VNpcwiBQhoBvJb1Y8gt4RvtqE58vLRNkV9bdp2GILqibpa9IboDMJ2EQmIrAcvrR09aeKDWxg4+n8Q+luaw0JFtYmfUracc5NPH9dKX5Nmk1CYPAVATcEN9M8mO+10hN1MvxND6jNHtrvrIaz2yT3/0Y0g+lN0hPlpaUsGESWF3Zfr70cekUqcneqfE67/vhm0pDNJ+Er5TGeTT1/X6l6wbIZyVf4fktjkPqgVF2sdkEFtXnE6T/kA6T2jjpj+r9T5X+vFJj5kENTZqvwo+UntVkojOk5QPQZZIPxG4guMdgEckjsZeQsG4S8H372yWXq3col6nLcxXJ99YWk9q2+xTAjtJRbQfSYvo+8J4guXzaNt/yuVTyMcGPL981W0vq0z0WC0lYNwncprBdnrdIHsHvcWk+BqwsuSHa9HlQSc5lbpC6p9qxNmZtZNzwPWXiRo3lkoQgkBcBt/jfKH05r7BaieYFSvUH0vytpE6iEGifgBudT5IubzqUNrq93ArbXjqz6cySHgQyIfBuxcHJ/8HCcLfnbpJvw2AQGBoBv+l2B6nxk79Bt9EAcLq+z/I0yd0eGASGROBdyuwnhpThAnn12Jy9JN8WwSAwFAK+/exu/7+1leE2bgGM59X3146Rthj/ke8Q6CEBd/u/Q/p0D/MWlaUd5ejbku+5YxDoM4FLlLmnSxe1mcm2GwDOuwdn/UTaxv9gEOghgbuVp1dI3+9h3qKz5OOAjwcMwo0mi79cCJylQDwQ/oq2A2rrFsB4vj3y/hnSF8d/5DsEekLA04Y+U+LkX6xAT9Bq7hZt9cqoWKisBYHSBDzg1Y+ht37yLx15AxvsrjT8+Ja7SxEMul4H/qR6vIaElSfgp4V+JHW9DhA/Zeg64Lkn9pdy6HVXGA9ao5MOjBKd4dNPBhwruXuELsAZQLEoawLe4T3Kf1fp+qwjzTc43zYZ9Zpsqe859FbmS4vIciZwg4J7kXRQzkHmFJtb/wdIHhVMCxoGXaoDfqzn+RIWR8Dz+J8rdakeECvl5TpwpOQJyLAKBLbRNudL7EwwyL0OuIvvW9JSEhZPwLMFfk7yy31yrwvERxldpXr6YgmrScCPBPneibsE2bFgkGMd+LPqpgeuYekJbKwkjpdyrAfERLm41/p/pUdJWCCB1eTra1JT72dnZ2ZnnlQHPJHH3lJuY2kUUu/N4yvOkSaVEcth1EQdcA+gx6w8RsISElhdvj2Ygq5Aduwmduyp0viH6t8+0kIS1h4BDwzcRaIhwLFgqv20qd+OUx3crL3dYJgpr6tsf1LyoKumCpp0hs36JNW1l0oLSFg+BNwQ8MBLzyrKwOFh76NNHaNvUl07UHqchLVIYH6lvZN0lOQXijRVAUhnGKx9tf9ZyfeesfwJrKMQPyJdILGPwiCyDrib/3jpFVIvpqvOalICQa1ry8vBDrPl2QX9PwaBMgR8wPDLOX4pHSGdLHnHx7pH4PEKeWfJxwJfqTFWQxCwUgRu1Nq/ktzNf6x0qdQb61sDYLxgnDdftW0vbSptIK0vPVLCIDAicIO+/EX6q3SK9BvJb6vE+kVgSWVnG+kpko8HPjasIGEQGBHwk2bnSR5T4knpfOI/TfJtpV5anxsAUxWY87u65IbAWtIys7WgPkePbfhq72bJleEOCesWAd8PXkLyffpRY8/l6Z34Jumf0pXS5dIl0hUSNkwCyyrba0srS56sxT2Gbii4p2B0PLhT3++SbpV8ixHrFoGFFK676xeVfLvYdovkMr1O8kydl0lnSxdJvT3ZK28YBCAAAQhAAAIQgAAEIAABCEAAAhCAAAQgAAEIQAACEIAABCAAAQhAAAIQgAAEIAABCEAAAhCAAAQgAAEIQAACEIAABCAAAQhAAAIQgAAEIAABCEAAAhCAAAQgAAEIQAACEIAABCAAAQhAAAIQgAAEIAABCEAAAhCAAAQgAAEIQAACEIAABCAAAQhAAAIQgAAEIAABCEAAAhCAAAQgAAEIQAACEIAABCAAAQhAAAIQgAAEIAABCEAAAhCAAAQgAAEIQAACEIAABCAAAQhAAAIQgAAEIAABCEAAAhCAAAQgAAEIQAACEIAABCAAAQhAAAIQgAAEIAABCEAAAhCAAAQgAAEIQAACEIAABCAAAQhAAAIQgAAEIAABCEAAAhCAAAQgAAEIQAACEIAABCAAAQhAAAIQgAAEIAABCEAAAhCAAAQgAAEIQAACEIAABCAAAQhAAAIQgAAEIAABCEAAAhCAAAQgAAEIQAACEIAABCAAAQhAAAIQgAAEIAABCEAAAhCAAAQgAAEIQAACEIAABCAAAQhAAAIQgAAEIAABCEAAAhCAAAQgAAEIQAACEIAABCAAAQhAAAIQgAAEIAABCEAAAhCAAAQgAAEIQAACEIAABCAAAQhAAAIQgAAEIAABCEAAAhCAAAQgAAEIQAACEIAABCAAAQhAAAIQgAAEIAABCEAAAhCAAAQgAAEIQAACEIAABCAAAQhAAAIQgAAEIAABCEAAAhCAAAQgAAEIQAACEIAABCAAAQhAAAIQgAAEIAABCEAAAhCAAAQgAAEIQAACEIAABCAAAQhAAAIQgAAEIAABCEAAAhCAAAQgAAEIQAACEIAABCAAAQhAAAIQgAAEIAABCEAAAhCAAAQgAAEIQAACEIAABCAAAQhAAAIQgAAEIAABCEAAAhCAAAQgAAEIQAACEIAABCAAAQhAAAIQgAAEIAABCEAAAhCAAAQgAAEIQAACEIAABCAAAQhAAAIQgAAEIAABCEAAAhCAAAQgAAEIQAACEIAABCAAAQhAAAIQgAAEIAABCEAAAhCAAAQgAAEIQAACEIAABCDQRwL/H2/pYMFOO43cAAAAAElFTkSuQmCC;fontStyle=0" vertex="1" parent="1">
          <mxGeometry x="890" y="220" width="140" height="140" as="geometry" />
        </mxCell>
        <mxCell id="CaOUmlFaGnciyHe8es5i-10" value="PAC INTERNAL MPLS&#xa;AIRLINE NETWORKS&#xa;10.208.0.0&#xa;...&#xa;10.216.0.0" style="shape=image;verticalLabelPosition=bottom;labelBackgroundColor=default;verticalAlign=top;aspect=fixed;imageAspect=0;image=data:image/png,iVBORw0KGgoAAAANSUhEUgAAAgAAAAIACAYAAAD0eNT6AAAAAXNSR0IArs4c6QAAAERlWElmTU0AKgAAAAgAAYdpAAQAAAABAAAAGgAAAAAAA6ABAAMAAAABAAEAAKACAAQAAAABAAACAKADAAQAAAABAAACAAAAAAAL+LWFAABAAElEQVR4Ae2dB9gkRdW2UXLOOS05igqS06IoqASVpCAoKCqfKAgiiCKLgqCgKIoBiSogKBJEogIiCJIRkSQsOeec//95cAdmZyf06TDT4T7X9bzvTHfVqVN3p+rq6prJJsMgAAEIQAACEIAABCAAAQhAAAIQgAAEIAABCEAAAhCAAAQgAAEIQAACEIAABCAAAQhAAAIQgAAEIAABCEAAAhCAAAQgAAEIQAACEIAABCAAAQhAAAIQgAAEIAABCEAAAhCAAAQgAAEIQAACEIAABCAAAQhAAAIQgAAEIAABCEAAAhCAAAQgAAEIQAACEIAABCAAAQhAAAIQgAAEIAABCEAAAhCAAAQgAAEIQAACEIAABCAAAQhAAAIQgAAEIAABCEAAAhCAAAQgAAEIQAACEIAABCAAAQhAAAIQgAAEIAABCEAAAhCAAAQgAAEIQAACEIAABCAAAQhAAAIQgAAEIAABCEAAAhCAAAQgAAEIQAACEIAABCAAAQhAAAIQgAAEIAABCEAAAhCAAAQgAAEIQAACEIAABCAAAQhAAAIQgAAEIAABCEAAAhCAAAQgAAEIQAACEIAABCAAAQhAAAIQgAAEIAABCEAAAhCAAAQgAAEIQAACEIAABCAAAQhAAAIQgAAEIAABCEAAAhCAAAQgAAEIQAACEIAABCAAAQhAAAIQgAAEIAABCEAAAhCAAAQgAAEIQAACEIAABCAAAQhAAAIQgAAEIAABCEAAAhCAAAQgAAEIQAACEIAABCAAAQhAAAIQgAAEIAABCEAAAhCAAAQgAAEIQAACEIAABCAAAQhAAAIQgAAEIAABCEAAAhCAAAQgAAEIQAACEIAABCAAAQhAAAIQgAAEIAABCEAAAhCAAAQgAAEIQAACEIAABCAAAQhAAAIQgAAEIAABCEAAAhCAAAQgAAEIQAACEIAABCAAAQhAAAIQgAAEIAABCEAAAhCAAAQgAAEIlJ3A28oeIPFBAAIQaCCBGVTnmaRppKel16RnpVckDAK5EKABkAtGnEAAAhAIE5hCOd4trSktLy0+QfPq/9ulTntdCx6Q7pLulq6RrpSulp6RMAhAAAIQgAAESkpgLsW1o3SW5Dv6/5eD3DtwqbSntLSEQQACEIAABCBQAgKTK4ZNpLOlV6U8Lvr9fLhHwI0MP0bAIAABCEAAAhAYMoGpVN4XpTulfhfsotY9pXK/J80uYRCAAAQgAAEIFEzAz+8/I/lZfVEX94hfDyLcT6JHQBAwCEAAAhCAQBEEVpDTf0iRC/Sw0t6nuDYvotL4hAAEIAABCDSVgEf0+y7br+kN64KetpzfK8ZZJQwCEIAABCAAgQwEFlTei6W0F+RR5PNrhKtlqDNZIQABCEAAAo0msLpq/7A0iot41jJfVNweq4BBAAIQgAAEIBAgsIXSviBlvRCPMr8nF/pmoM4khQAEIAABCDSawKdVe0/AM8qLd55lH6a6vE3CIAABCEAAAhDoQWA7LS/64v+yyrhful16XPJUv3le8Lv58pwBGAQgAAEIQAACXQhspGV5z+bnMQS/kXaS/LsAvSbumUXr/JrhttLPpZukbhfyLMv2kk8MAhCAAAQgAIE2Au/QZ0+qk+UC28rrO/ojpTUkTxyU1pZVxnGS3/Fv+c7y32MCPiZhEIAABCAAAQiIgN+bHy9lubg67xOSB93NJOVpnnbYjyZuk7LG6CmE+VEhQcAgAAEIQAACJwtBlgurxwz8TCp6Ah43BL4qZe2puFE+ppEwCEAAAhCAQGMJbK+aZ7n4j1f+tYZMb1GV558IzhI3gwKHvNEoDgIQgAAEykNgLoXiUfhpL6TnKG+vQX1F19LTEx+aIXYPdly56CDxDwEIQAACECgjgaMUVNqLv/NOXoJK+SeJ/QgiTT2uUj7mByjBRiQECEAAAhAYHoH3qKi0F86yTayzo+riEf5pGgGfGB5ySoIABCAAAQiMnsAZCiHNBfNE5SvjXfNuKetzu/J5cCEGAQhAAAIQqD2Bd6uGae6Y/6F8U5eYzq8VW5pGjV8xxCAAAQhAAAKVIzC9Io681na80kcvlE8qzxipzDatgvu3FK3b1WWuFLFBAAIQgECzCfgCv4G0r3Sa5AudL8rtFzuPbL9fukzy3fAu0ipS+2x8s+l7ml/521b5qmCrKkhzaOeS5POwX2WsAktihAAEIACBERHwKPtNpdOl56QkF7JuaR5R3uOk90tuFHRL02/ZJcpTxuf+CqureZBiv/p0W3dkV08shAAEIAABCAyRgAelfVm6W+p2scqyLPrs3+n9xkCVzPMbPC1FOD2q9FNWqZLECgEIQAAC9SKwuaozXopcvIpM68l+qmgHKOgoFz9iwSAAAQhAAAJDJTCHSjtJil60ik7/vqFSyK+wBeTqlSDPH+VXPJ4gAAEIQAACgwm4i/0eqeiLedT/nYqpSs/+Fe5Edqq+RerM2wAT4eMLBCAAAQgUSWBLOX9eilyohpX2+0VWfAi+tw5y9dsDef+U8RCqSREQgAAEIFA1Ap9UwL7oDOuCHi1n7aoB7YjXrzxGHwOM7fDBVwhAAAIQgECuBHznX+aL/4uKLzK5UK5wcnR2pXxFGj475lg2rkZIoH3yixGGQdEQgAAEJiKwir75vfwy/JreRIG1fblGn90IqLq5HhFbMpKYtOUlQAOgvNumjJHNp6AOlf4rvSxF7hpIWyyvZ7U9/i59VvLvwFfZ5lHwHpxW9rvrW6sMuS3269s+J/noVwH9C4GLJUlMGghAoPoEPENa57SqXNSLvain5euGgJ/tVtU8q1/auvfK5zv1XuvSLt+3qoA74t4kAxvPoHi85Mc1DA4UBAwCdSOwvCrkO8y0J0ryDZ/dBdpeVXw9zYP+su4vnuHuGOnjkrurp5Rsnj1wAWk16WvSX6WXpLTlbaa8dTA/bknLoD2fG1knSOvUAQp1gAAE/kfgLP1rP9D5XA0eviurkk2nYO+X0u5fvgB9R4rciXpyoQOkp6RIuR6cOI9UB1tWlYjUPUnaG+RzK4nHzHXYQ6hDYwnMqZr7ZJfkoCdNuTj5F/GqZHso2LT7kH+MZ+kMlZ1VeX8VKP+oDGWVLetygXpHt4/HF3yobBUmHghAIBmBtZQsetCTvhzMqjRIzXft/rGZNPvOH5RvaikP21pOBv1Izo1K44ZxXcyP+NJwj+TxNpqvLsCoBwSaQmBDVTRyoJO2PLyq1ADYPeV+dqzyTS7laR7dfrHUbV8+Rcvr0vXfYrZ4j7p2q3+WZR5EvE2rUP5DAALlJ0ADoPuFIMuJcFh5/1j+3evNCK/TpygXT2DjgX1FmX9/YG/pIGlX6Z1SHc2vjQ7q9Yhum37pf6nypqkjSOoEgboRoAEQvzD1O/kNc11VRqmneQbtQXu+c8XyIRAZ/5DHPnyFwp4rn9DxAgEIFEWABkA1GwDnaYeoymuA31Ws0YvKl4ra4Rvqd37V+6EU2yG63drT+xHVog3lTbUhUAkCNADiF6f2k9woPl+oPcuj2qtilyvQCKfxSt96t78qdaxCnCspyPukyLbImtavfdKTU4W9gxgbSYAGwHBPiGlPqI9p7/TkP5+SqvTutZ/h+/39SL39uiBWDIGZ5Xac5Nf3npci2yVt2vEqxz0QGAQgUDIC0QbA2SWLn3DKTWAVhRe9cCxS7irVKjq/XulppZeRNpX2kv4sPSNFt1u/9H610o0PDAIQKBEBGgAl2hg1DOXzqlO/C0PnuttryKCKVfIjmI2kk6Us0ym3b9/T5asq41YUavWtSl2F1adNDSAAgU4C0ZHgnr8fGz2BVxTCmdKWkp/hHyb5UU4W20SZ/dolNiQCNACGBJpiIACBrgQ8F3/EbogkJu1QCNyjUnaR/DrnWRlL3E/5V87og+wJCdAASAiKZBCAQCEE/Hw5Yn5VDSsngTsU1oelz0rPpwzRszoeKRU5wVPK0OqXjQZA/bYpNYJA2Qn4+bHHlhwuRX8oxl3PWLkJ+IeSVpXuShnmCsq3R8q8ZIMABHIkwCDAHGE23NWCqv9B0gNS++CvyOdtG86wStX3q31+ZBPZvq20npo4Oj6kSmxKESs9AKXYDAQBgVoT8IXA87//V9pTyvJjOgsoP1YNAp5U6H3SbSnCnVF5vpkiH1kgAIEcCdADkCPMhrmaQvXdXfLdXOvOLut/v3aGVYuA521IM82wXy+cr1pVrVa09ABUa3sRLQSqQmBhBeqZCQ+RfDeXly2VlyP8DI3AeJX0Cem1YIkeCOh5IjAIQGBEBOgBGBH4Che7gWL3b79nvdvvlj/twLIK46xN6Aen2CceVJ6pa0OgZBWhB6BkG4RwIFBxAjsqfk8QU9S0rvdWnE+Twx+nyt8dBDC30nvGQawAAjQACoCKSwg0lMAXVW8P9vOz/6LMjQusmgSeU9hfSxH65inykAUCEMiBAI8AcoDYABfbqY6vS9267fNa9oD8F9Wz0IBNVIoq+qbzP1Jkn/Ag0mlKEX3NgqAHoGYblOpAYAQE1lGZv5LeVmDZ/vW5j0lPFVgGrosn4EaixwJEzINI145kIG0yAjQAknEiFQQg0J2AJ2s5SSpq6laPHP+ztKJ0mYRVn8DvVYVng9VYM5ie5AkIFPmsLkHxJIEABCpO4FjFn2Vin1b1fWd4heSL/O3S49LD0o2SR4Jj9SHgi/9p0icDVaIBEIBFUgjkRYAxAHmRrJ+fj6tKkWe53dL6Av9/EhO+1G//6FcjX/y77Q+9lrlBiEEAAkMmQANgyMArUtz0itNTvfY6YQ9afr/y+pVB//ob1jwC86vKg/aRzvWzNw9TsTXmEUCxfPEOgboS2FkVS3vXfr7ybil5siCsmQTcePT0wH7PP6ktqoSPJU1MusEEGAQ4mBEpIACBiQlMp6+e4z+NHa5MH5K4+KehV688twSrs3AwPckHEKABMAAQqyEAgUkI+O59zkmWDl5wlJK45+DVwUlJ0QACdwbrOFMwPckHEKABMAAQqyEAgUkI+Nl91C5RBg/2wyDQIuAJfiI2QyQxaQcToAEwmBEpIACBtwh48Nbqb31N9MmvfbnX4OVEqUnUFALRuQD86AnLkQANgBxh4goCDSCwieoYnfHvh8rjaXwxCLQTmLr9S4LPLyZIQ5IAARoAAVgkhQAEJlsvyOARpT8kmIfkzSAQfabv6aCxHAnQAMgRJq4g0AACqwXreLLSc+IOQmtI8ugMkuxHOe8YNAByBoo7CNSYwGyq24LB+p0eTE/y5hBYKljVR4PpST6AAA2AAYBYDQEIvElgkTc/JfvgUd4XJUtKqoYR8EySY4J1vjWYnuQDCNAAGACI1RCAwJsEFnrzU7IPNyjZK8mSkqphBNZUfSMz0T6n9J49EMuRAA2AHGHiCgI1J+DfZY/YnZHEpG0UgfWDtfXdv38bAMuRAA2AHGHiCgI1JxB9Dzv6nnfN8VG9CQT8GukWQRr+mWgsZwI0AHIGijsI1JhAtDufX/qr8c6QoWrrKO+YYP4Lg+lJnoAADYAEkEgCAQi8QSB6Rz8r3CDQhcCuXZb1W/S6VtIA6Eco5ToaACnBkQ0CDSTwVLDOSwTTk7z+BFZQFTcNVvMKpedngIPQkiSnAZCEEmkgAAETGB/EsJzSzxHMQ/J6EzhI1fMYgIj9NpKYtMkJ0ABIzoqUEGg6gTsEIDIOwGMAPtx0aNT/TQIe+PfBN78l++AfkPpdsqSkihKgARAlRnoINJeAL/43Bav/kWB6kteTwPyq1uEpqvYn5aH7PwW4JFloACShRBoIQKBF4KLWh4T/N1a6ZROmJVk9CUypap0ozZmiet9LkYcsCQnQAEgIimQQgMAbBKKjsf0Y4LuwaywBP+8/Wlo7BYHzlOfKFPnIAgEI5ERgQ/n5fwGdnVO5uCknAc/h7l9li+wTTvuBclaHqAok4BvMn0jRfaWVfq0CY8M1BCCQgAANgASQGpbkONW3dZJO+t/PcRdrGKcmV3cqVf4EKen+0ZnOeTEIQGDEBGgAjHgDlLD4dRVT5wk7yfcblY/JgUq4QXMOaYz8/VNKsk90S+P5JuaVsIIJRH6NqeBQcN8wArOrvv59+ZmlWSb892d3G7YmnHFX86uS7x7vnvBf/7ARE/ibyr9cWi0YhwcDek73TSR+2jUIrwLJ/bx/B+lgKUtD7xvK/4CEQQACIyaQtQdgQcW/lTROOl7yncHjUreW/6Blzymf7yLPkY6QviitJHmUMTZcAhupuEHbq9d6b3+/HYDVh8C6qso/pF7bPOnyM+TDDQkMAhAoAYFoA8CjdneW/AzPd+1JD/ws6Z5XOZdIP5D83nn0V+uUBUtB4K/Kk2W7na/8705RLlnKQWAahbGFdLGUZT9o5b1LftwriEEAAiUhEG0AtA7mUf53g+BU6VMSJ5TidqSl5folKcu2fk35L5J2kRaSsPISeLtC80DO7SVPz/uElGXbt+f1D02tImFDJEBXyxBhV7QoNwCq/GqfxxBcJB0p/VHybHZYfgS+Llffzc/dZPfL122SHxN422GjJTCVip9BmlvyjztNLeVtPibdc3dW3o7xBwEIZCNQxR6A9juL9s/3CcW3pHmyISF3GwHfFZ4rtXPmMzyS7gOva9/Zrm1/4iMEIFAiAnVqALROSu62PkFavkScqxzKnAred+0tvvyHRZJ9wD/088kq7/jEDoE6E3D3n+fiTnIwVzGNnz8fKy0sYdkILKrsfnWrivsBMQ9/u/kV3w2y7XLkhgAEiiDgsSGbS025q3tRdT1U4rfrBSGDuUfFj1m4oMKg3z7g8wpvf2Q40MgKgaIIeGT3hVK/A7iu6zwB0RckBscKQkpbRPk8yU9d9xHqlW3bnqx9Y6aU+xbZIACBggi4u38/yXfDTT/JXSAG7tLG0hHwq5ee0KXp+xH1f2sfeFj7w6clDAIQKBkBd91eJ3HCeouB30v+suRR7licgHtRdpM8eyP7VXMZeJzNLyTm4xCEshldnWXbIsONx9vfE7AcKE0z3KLfeMf7UZXZku8QnpRmkKaUbP5sLSzNJ43ityvcG/Bx6REJixMYoyw/kTaKZyVHhQn4wu/ufp9bbqhwPQgdArUkMKNq5QN0GHdn96ocdwnvL3nq0CWl6J21L/5uCKwt+Tn9cdKwnjXfrbLeI2HpCXi7nScNY3+jjNFx9uyAvuP3MY5BAAIlJOCD8yapqBPly/LtO+c9pOWlIm0uOd9U+qXku/Si6vSCfH9awrIR8OjvH0vu8SlqW+F3uGz9St9pkhv3w+5JVJEYBCCQlMA6SvioVMRJ8u/y+ylpVKN83UvwfukIqag6/lS+J5ewbAS8rdaSxkkXSkU23orY15vq0437myVf8L8prSF5W2IVJMAYgAputAwhf0J5j5GmzuCjM+tjWvBr6VeSexXKYq6jZxn7irRczkGdJH/bSq/k7Lfp7jwPw0KSB4zNLEUfEykLljMB7+MeEOuufY/RuUt6VcIgAIEKEdhRsXpgTl53Lr7D3lOaXiqzuZG7oXS+lFfd7cdjGujuFAQMAhCAAATKS8Cvs70u5XEB9J3At6RRdfOr6NT2XuW8XsqDg338RSp7A0ghYhCAAAQg0EQCO6nSeVz87eMYafaKQ/Tz+89JD0l5NAQ87mFaCYMABCBQKQKMAajU5goHu41y+Pl81mept8vH56W/SnmaX0VcQppTco+Cv/tiaj0tPSV5hLF1i+SR43mZyztU2iEHh6fKx+aSG0kYBCAAAQhAYKQENlDpHsCT5S7XF7RDpDzucN3Y/JD0c+li6UEpGpsfP1wuHS19RlpEymofk4M83hjwq20YBCAAAQhAYKQEllXpHrEbvcC2p3f+TXKqxQLyc2nGeNpja//s3gm/9reelLanYz7lPVdq95vm8+7ygUEAAhCAAARGQsDP6H1RTHMBa+X5l/K7az4Pm1VObpNavov8P17l7Cel6Rlw4+H7GeN8Tfk/KmEQgAAEIACBoRLwRexsKctF9vfKn+fI9sMzxpOmLn5P+TdSmulIPUAwy6MTP6YYI2EQgAAEIACBoRHYRyWluWC28hyp/B4ln5dNJ0eeRKTlf9j/3RD4tbSoFLEPKLEHIKaN9zLlnTJSIGkhAAEIQAACaQmsrYy+4KW9aP1Qed+WtvAe+VbJEE/aenTL97zi8O8SRKYsdexZGgEHKT8GAQhAAAIQKJTADPKe5bm/n5sXYWPltNsFeVTLrlY87wpUdC2lTduD4fEA7knAIAABCEAAAoUR8M9vpr2o/rSwqP43GC9tXEXl84+Z7BSo83uV1j0IaeK5W/ncOMMgAAEIQAACuRPwXarf109zgTpd+fJ85t+tcn6jIE1sRef5leLyDwYlsY2VyHf0aWL6XpICSAMBCEAAAhCIEPAz7bQX2H8qrwfpFW2+eKZtoKS54EbyeG6CORIC+IbSRXy30rrHwfMyYBCAAAQgAIHcCHxFnloXmsj/+5Vv7tyiGOzIF8+yNgKuU2xJGgEeIPlHKcK5lfZC5ct7gKVcYhCAAATSE+CklJ7dqHPOogA88G+2YCC+EG8onR/MlzX5h+TgO9KKHY4e0fdbJTdKPOf/c5K72907MavkiY2WlBaQijL3orxP8pTA/cy/VeCek2X6JeqxbmstP7HHOhZDAAIQgAAEEhP4rlK27jAj/w9OXEIxCeeX2zWlFSQ3YpKaJydyvm9Kf5FekiL1HpT2evmbSRpk71CCNGX7x4yKHm8xKHbWQwACEHiTAD0Ab6Ko1Id5FK3v/qPP8K9WnjUkP5euurnb/hPSp6XOXgUtSmVnKtemkntJ+tk4rdy3X4Ie67bR8hN6rGPx8Am4h2kpyT1M7mlqzYDpXqjHJDfarCclDAIQgEApCHiSmUF3tJ3rX1Ge5UsRff5BvF8uL5E665zmu3tWBtlUSuDHBlH/NyrP2wc5Z31hBHzD47dmfiR5+yUZl+I07h3yRFluPHPTJAgYBCAwGgIzq9inpOjF57DRhDvUUjdWaXelYNPO0if8LRJEvbLSuFHVnjfJ5yS+ExRPkgAB95TtIv1XSrKN+qW5TT6+JE0rYRCAAASGSmBPldbvBNVtnQfaubuzCTajKvlTKcndXTdWXubuXz9mGWRHKEEvH72WXzfIKetzI+Delh2lh6Re2yPt8gflcweJHgFBwCAAgeIJ+IR2hxQ9aX2h+NBKV8JWiujZFKxabE9JUKMFlOaFFGWsmsA3SbIRWEzZ/yG1tmdR//+uMsZIGAQgAIFCCfj1veiJ7Fblaero83eq7vemYNZivKXyDrIfKEErfdL/vxzklPWZCHxMuT1wL+n2yJruCZW1SaaIyQwBCEBgAAHflUZPVp8f4LPuq5dQBe9Jwc2c75cGvWkxp9I8HfTvi9Mgv0qCpSDwJeVJO21z9NhqT+8y/y9FvGSBwMgI8Pwqjt7d8O5e9OtDPvnPLc0ltV4h0sc3zN3Pvvv0s8L7JHfd+3ta8+A/+5om4MDPPsdILwby1DHp4qqUu2qTPNfvrP+eWvD9zoUd3w/W9692LBv0dVsl+O2gRKwPEfA28LYYpe2mwg8dZQCUDQEI5EfAk8NsLh0u+ZmiZ6trb/lHPnsw3nnS96RNpcgvxW2n9JGynPYbEvY/AqvrnxtCUYaeHXDQBEFuEEbvOv+qPFh+BD4lV1kGfkb3i17pHcM2+VULTxCAwLAJ+I7+K5JP0i9LvQ72rMt9QTpf8l3DglI/O1MrI+X5J2ybMvK/H7f2dZ8JMmzxHtfupMfnc4K+X1F6tk8PmMHFKyp9msZda/vm/d8DQ98VrAPJIQCBERNYW+WfIL0k5X1SGOTvNZV5tuT3xKeW2s3vHPuCPshH+/rftzvg85sE/hDkaKZ+lDLVmx66f/iIFrfzT/LZ2xrLRmB6Zc/j/f4k2yuSxjMIMs4j27YlNwSGQsCj66+RIgd4kWkfVix7S62u5w1SxLaZ8mCTEvCYjcek6PbbalJXEy2ZQt881iPi98iJPPAlDQE/ToswH2ba/dNUiDwQgMBwCKyiYi6QhnlSiJTlC9W3JF8oIvmeUnr3GmDdCfjNiAhPp/XjoEH2CyWI+L1nkEPW9yWwpNZmfUTnZ/ZXSb+WDpogf75aimzLbmn9WGJRCYMABEpEwHfWvqj64O924FZ9mU9gWG8CU2rV7VJkO3tf8dsE/WwjrYz4dNrl+zlkXV8Cx2htlHcrvRvJ35QW7FPCQlr3LSn6mmerDP//VR//rIIABIZMYH2Vd5fUfpDW7TPPlgfvVJ9KsQ98ZYBb97o8F/T7xQE+Wd2dwPxanPbu/xTlnaO7265L59TS06Q05wmPJ5q3q1cWQgACQyPgu74fS3W9628/OXHCGbxbeVCfB/e1cxv02W9sDLIzlGCQn/b1RwxyyPquBPYMcm4xP1D50sx/8nblSzvewPMTYBCAwIgI+Le+L5BaJ4E6/79tRIyrWKwn+InsC36mO8OAiu4S9Hn5AH+s7k7gX0HO3s5Hd3cVWnpcinI9wBiDAARGQGA5lflfKXKir3LaPE5yI9hMIylymRT7xcYDIl0n6PNZpffdJZacgHu4osfof5Rn0KucSSLwK7q3BMt/XennSuKcNBAYJoG6n3hWFcxLJc/U1hS7pCkVzaGeN8mHG4cRW3lA4uu03if8pOb32AcNLkzqqynpxqaoqF+r9ZiBrPaSHNhXxPzIYWwkA2khMAwCUwyjkBGV4Vf8zpU8h34Rdrec+q7C8nv77h5+YYJm1X8PMrIWkt4tzScNw24cRiE1KuNs1eVLgfq8c0Bajxh3o8KvqCW1FZTw1qSJSTfZoG3Qicjbw4P48rI/ytEd0qIBh4755EB6kkIAAikJ+C7tCSnaTdgvvQ/4n0ielGdmKWpuAGwiHSq58dCvrCzrPGIZS05gUyWN8L4zgevfBX3umsAnSd4icGqQ78FvZc3t0w+DMfwht5JxBAEI9CTg7tTHpMhJvVfal+XnJGldKU9zl+Bq0iFSXrG6Dr77xGIE3EPTa/t3W/660s8yoIjvBn16ZDqWnMA/lbTbtum1zA3vvO2jctirvG7LL8s7APxBAAITE5hJX90F3u0AjCzzvPzHSr44FG0eVe47wDx6Ba4vOtia+n9c9YrsH4PGlOwS9HdUTbkWVS0/dotsr/cUEIgfMUZi+HcBMeByUgIzatEYaQVpTWmlCfKN4cwSVlMCk6teZ0qRg7JbWg8a9M4zbPM8BTtJ0YtRex3cNYrFCVygLO0cB32ebUARWwX9/WmAP1ZPTCA6i+MSE2fP5ZvHeAzaT9rXRweb5hJkjZ34fP9OaWfJr2b6ddpHpXbm3T67l9SNsVOkPaX1JDcasIoT+Lbi77bBky7z6N69JO9Yo7S5VfhvpaRxt6fbZ5SBV7jsbwV4J7mTGxvw5+3nLm0sOYFrlbR9vx/02XeCedvacjio3Pb19M5l3wJ+Y2Zz6QTpSamdb5bPPvefJ31RWlDCKkbAg/5ekdLuBPcq73tKVucNFU+SFm17nd0ticUJzKssvjNoZ9nr8w4J3C+T0FerDJ/M9pU+Ka0hzSVhvQlEe2y27u0q9ZptlbO1/ZL8vzh1SWT0W1RHSM9KSVhnSfOayjhL2kQa9c2gQsAGEfDEHFme+1+h/PMNKmRE68eo3KR3O6ePKMa6FPsJVcQHf7+Txx+03gM4B9liStDPT5J198uHt+k3pfdL00rY/wj4DjAJw1YadxHnbdFeuiJiyLtOZfM3VgH9TWptx2H/v1Nlf1by41mspAQOUlxpd4wLlXe6ktarFZbjG3SyuU5pBj2Xbvnjf28Cm2qVL7yd+9PLWuZXyaaSkpifOXf6yPr9Bfk8V9pNWlJqsn1NlY/w9Js2eTagfEw+EYxhb6XHkhFYUcmivTyR/SGa1uM3fIOAlYyAu1rTdv27S87PlKpi3gG9I7bvvM/r+/elmSQsHwK+UGwhuWF5mLSTtIAUsaWUuH07FfH5SpXhxsD8kcBqkvZ9qkeUqRsNeZkv5tHy18+r8Br78WC8H0mvSlG+w0h/vuJaXMJKQsCjp9NseA/IqerITzd6fDJZVUp6R6qk2BAJeBul2S/T5PFjCz8q8D6R5PGEklXaZlP0v5SirHzHvmAONV9YPqID0DxLqBuWWG8Ca2vV3VJ0uw47vW+6dpGacKypmuW19yq0NBv/EeUbU95qEVkNCCynOqTZN7Pm8ViYHaU6PrOcQvX6ohQdGNvO9Brln15KazMoo28e2n0m+XxW2gIbkM8D7cZJZb3r77V9T1HMM0vYiAhcqnJ7bZxey72TjR1RvBTbHAJFjAHotU93Wz5eqLeXfNGsg7l34wapW12jy/4uP3OlgOLXc9Occxwfz4+7A3dj7Awpug3Lkv42xe5jHRsygTVUXpqd4OAhx0lxzSTgN1PcVZhmH80zz62Kwa8zVdX8NsWpUp5M7OtOaWMpqW2qhGm7px9SXrr/JyU9rxZdLeW9bYftz9u3bK+QT0q7ZkvSnBRuEoNpasaB6pSXwIkKbdgno17l/VmxLF5eVJNE5vE5HoTpZ+e96pTHcvcGfEbq1iPgZZ+VLpGylOXJxbCJCcynr7dIWbiWKe8zqstYCRsCgTEqY9D72t12jrFDiI0iINAi4K7Bp6Vu++Iolvli+k1pCqms9nYF5kcX3V7FLJLZ6yrzAcljBCx/9rKsZd4nH27MYG8R8J3/zVJWtr3ye7s9LHk8zFVt8rbIY5v2KtfH+soSVjABn8R6bYRey5lrveCNgvuuBN6vpU9JvfbLUSy/XPGUcR4BP9a7smSssm6fj6s+2FsEPIjyWikr1/b8vvCeIu0k+c2ofoM8/dbUUtJ20i+ktI912stv//yIfC4rYQUSiHYdeeDfcgXGg2sI9COwsFYeKT0utZ8sRvn5OcWyg1QGW0BBHC8VeXc2CtZ+TIm9RcC9O6dJeWwLn9PPlD4iZXkV2q/yrS79TPIxkUdsHnczi4QVQMBdLNGNdHIBceASAmkIzKFMi0orSCtJ7iHw3ci3JDcS/iYN87HBl1XeqMwD4/aRhjG/e/SckTX9eNVr1lGBLWm54xRXVq5+9OvGYhE9WLPL776Sn+dnjfMM+XCDB8uZwDj5i26cdXKOAXcQKJKATxxLS5+UjpH8PDq6zydN/7J8F3Eyldu+tqXW3ikljbNK6dzTQ4+jILTZWvrsu/Ys29FvDKzY5rOojx6g+GspS6zOu0dRATbZ72XBDeNJOzAIVJmAuyndW7CfNF7KemLqzH+ofA7L3q2C3MvRGUNe3328D7MHpTPup1T+mhL2FoGZ9fFOqZNV0u9uOOwtDXvw6kdVpp/pJ42zM90LyuuGPJYTgdnkJ9qK/GpOZeMGAmUg4N6B9STfobwkdZ500nz3nVXR5lfqjpDSvL2TpE5+F3tHyXx8l/iglCRfnmncU/MuCZuYwI/0NS1nj+Z/38TuhvptQZXmRmXa+C9VXu+TWA4EPiQf0Q2xeA7l4gICZSTgHwH6gZT1meXtBVbOA7R2l56UosdukvRuBB0i+S6z3RbSl39ISXzkkeZilbVAewB8foPAO/T3FSkN47uUbxSPp94IvO3PjPp8rpSmDs6zfZsvPmYgsI/yRjbCvzKURVYIVIWAe8a+L/k9/8jx0UrryXCKsA/L6S1Sq5y8/3sUeL8LxJRaP05yV2zeZbf8PS/f35CG3T2tIithf1GULVaR/3conxtxZTEPWP2rFKlDK+09yuf8WEYCpyl/C2qS/8N8tpmxamSHQGYCi8nDH6Ukx0Z7Gj9fzdOWkbOzpfYy8vx8k3xvGAjYXPwm0GtSXnH4UeQJ0iIS1p3AWlqchvdjyrdUd5cjXTq9Sr9SSlOnr4008poU7q7KCPyta1JvqgGBCIEPKvF9UpJjxYOcZo0475PWfvy892UpSdnRNE/I766S7+zTmAdkHS49KkXLbqU3r59I/XoetBoTgTTd5m5YjS0xPfdKeFxCa39I+t/jQ6Yucb1KH5oHUkRPLDz/L/1mJcCCCPhifLzU7wTl7uuxUlabXA6+IPni2K+8tOt8Ufi55DkU8rCp5MQ9CH5scpnUb3yCGx3/kL4nfUBy3iaZz7tzS4tOkC+AM0mDzM/+02zv/QY5LsH6DRTD6ynqt20JYq9sCB7wFNmhXlD6t1W2tgQOgXwIbCI3t0qdx85FWuaTdFZbTw6yjJLujKvz+wXyv0LWIBPk90VuWWmVCfJjjLmkJpkbcu62HyedIY2Xet10eeCpx1i5kfkV6V1S+/nWPUGd23LQd8/bX5WxFEenqJ8fH2ApCaymfIN2oPb1t6Ush2wQqBsBn5jfLW0lfUzy3VxWW0QO/iC1H3N5fr5DvjfLGiT5ExF4j1IdJfnZe5Zt6MdOP5ZWl6KPWXxHvaZUFZtVgabh5UYmloKAu+wiO6fvHDAIQCBfAjPI3QGSe9gix2PStL6z3FuaRsKKJbC+3PsRSNJtU2S6k4qtaiHe90zBbt9CImmAU9+5RHbAKu5QDdiMVLGiBNyLsJ3ku7zIcZg0re8Afy3NJ2HFEvDYqPOkpNtmGOncQ1U1m04BPyxF+Py7apUsS7weQBEBfUJZAicOCFScwKqK/3IpcvxF0tq3y8CKJeBG3M5SXr96F9nG/dKeX2y1C/V+kLz3q1u3dR7PhgUJfErpu8Hstew3Qf8khwAEJibgu3HflfvuvNdxlmW5exPcsPeFCSuWwPRy/3spy/YqKm+VR8d7PE30+Ph4sZu6nt63DO68x9cTA7WCQOEE/Pzdz+H9PL6Ik77HD3gcgccTYMUTmFdFXCMVsS2z+vSrqEleKyyeUvoSrg6y9VwUWJDAh5U+srNVuVspiIbkEMiNgEfe3yFFjrVI2j/It98gwIZDYB4Vc5MU2UbDTOuxCFW3/VSBCDM/8sISEvB7oR4gcrAUgex3VDEIQCAZgXcq2YVS5BiLpL1evtdLFgqpciIwm/z8R4psp2Gn3Senuo7SzXuDjP36INaDgJ8H+r3U/aVLJHcRpdkpgSxwGAQGEPDser+QPNtemuNsUJ5H5PcLkieZwYZHwDdO7gUdtH1Gvf79w0NSWEmeEyA6DmD2wqKpqOOVFbefjdwj5bVTLlRRFoQNgaIJTKkCPK++p7rN63hr9/Oy/B4qzSJhwydg9u3bo6yf6/I46K4g72OUfmtpcamxNr1q/lnpKqmIHfSjjSVLxSHQm8CGWlXkc+Gz5X/p3sWzpmACftQSvSPtd/51L6xvzO6U8nyF8BX5c09FHSzLhEoPCMARkse5TVMHGIPqMK0S7C5FJ1Hot5N2W7ffoEBYD4EGEVhKdT1T6nas5LHsFvn2SQwbHQHfVI2XsmxPNx4ulvzoZjHp7VK7+e2NVSU/v/cPJb0mpSnvOuWri52qiqRh0Jnncflx742P1dqZnwPuJN0ndVa8iO+/rR1BKlQlAlMrWA9g9Xu/X5cOkn4m+QDfX9pF+qBUdDfozCrjB5K75Ys4zp6UXzfom/ZLeapy6WxvRZRlG5+j/EsGa7W80nviteg4Eh8HdbHjVZEs3DvzuhH2Z2mlugBaURUpqqu/E17r+zF1gUc9KkPAs3x9VfqLFBnA6kbxr6XNJDcc8jA3uD8nPSS1jok8//vOz12Xc0nY6Al4MNoTUppt7EbcVhmrsJzy++2rJOX72FggY3llyn5iwnonYdOexg2BUyT3xFTS3N3vuw8/72mv2DA++64Eg8AwCPi5q599R++Cuh0HfoPlEMkTuKS1dZTxWqmb/zyW/U2+3buBlYfAAQolzbZ9UPnelVM1fL53o7BfHD5G3CtWJyuqAdDi6AaTexGnrBI0dyVdL7UqMcz/L6jcBasEi1grScBddJdIRezb3od/KEVmSltY6U8uKB7X8U5pSwkrFwFfeJ+SovvhA8qzRAFV2VQ+7+0Sz81a9oECyhu1y6O61DW6LZKkd6Pe19XSm08SaXbIJBCSpPlG6QkRYJUJ+IR7mJTHHf+g/dknUp9Q+5kHf31b8p3CIH9p1j8rv/tIrjdWPgI+30a3qx/hrF9gVfwIyj1jfgz1RWk1aQqpjrazKhXlnzb90yqr1I3w/YYIoxOid+oDpbdJGASKILC0nCZ91tm5f6b97meBh0qdXYDez7eR7pHS+u6Xz+UeL9Xpea2qUzs7QzXqtx27rTugdhRGV6E5VXSer0h2216dy76jMkt1nXOLb9Dzn85K5PHddyd+Bek4aVUJg0BRBNaS4yekPPbbND7+orJnmFC5lfX/HwXGcoV8rzGhLP6Vl8BsCu1lKbI/3ab0U5W3SpWM7EvBbRDZXr3S/kpl+ro7cvPOdKrUK9Csy/8r30dLHmH9QWkpaVapFJVXHFj9CXxAVSyqiz1yfPjCfIzk3q5IvqRp75ffT0ud739rEVZCAh9WTEm3bSude42w/AnsKZevSC3Ow/h/gsob6bHqi/BJOVfaXY8XSjtKYyQMAqMk4OeX7mkaxgE9qjJeVP08V8GMElYdAh77EdlnPPDPN2xYMQSWkdvDpKul+yS/YhnZPmnS/lxljORxgAv9RY4V9CtQ3qEXkTAIlIGAn38/IqU5MKuSx713i5UBNjGECZyjHJH97KhwCWTISsB36GMk9yL6db7zpLx7E8fJ59BtnEqM7Hy90npaYHefcPchCFhpCHjU8t+lXvtt1ZffoLq9rzS0CSQNAd/RR/bDrdMUQp7cCXgsz6eki6TI9uuV1r3mG0tDs01UkgvtFVCS5X6Oebg0i4RBoGwEvqaAkuzHVUvzqOrlV7Pq+lpW2fajouJxD2z0mfM8RQWD39QEPHj9TCnrecQDlBdPHUUg45JKm/XZxk3ysUqgTJJCYJgEFlJheTz390xrfpXOz9d3kfaSfiy5G/AlKetBH8nvi4WfT3rkOFZ9AjOrCpHt7wsEVl4CHtB5hxTZpp1p3WNZ6KDAqVXAvzIG+Vvlb73OpI8YBEpH4GhF1HlwJf3unrFTpDWkfgejT+DbSbdJSX2nTecGx7ISVh8Ci6oqkf3h5vpUvbY18WNwXx8j27Uz7ZeKpPOdDMG5y7/Q4IqsOL4bQ2Ah1fRlqfPASvLdc1KsFiQ1pdLvJqUts19cblz4cR1WHwKrqyrfk9yL2m/bd667sT4Ial8TP6J7Nbh9W9v7GeWbvwhC75TTtCcpd3duWURQ+IRAzgR8cm0dTJH/vsv2/BRpbV1lzOuNA0/FvYfEK19pt0a58k2ncHzz5It4ZJ9sT3tPuapENAMIbK71aR8T/mqA7/Bqd2VeJbXvUEk/uxIbhkskAwSGT2ByFXmvlHTfbqW7VHn8eCyrrSwHWV4Rci/bkdLcWQMhfykIuHfoK5LHkrT2tbT/ffOWxz4qN9iQCGylcnxMR7f5K8qzdJ4xbpsiCAft4F0JDAJVILCugowebL6zyvOCu02KGBzz3yX/QiFWDwLrqBpZ7vi77cfvqQeaRtViV9W227YctOw3eVFyq3F8yiB2ySsI/EBgCAS+rTIGHVid6z9ZQFx/SRHHYgXEgcvhE/Bd/4FSmju/zn2z8/vWw68OJeZA4Pfy0bktB313z3sur32mbYGckEPFcQGBYRK4WIUNOrDa11+n9H48lretKIft5ST5TE9b3lth+P7mUJHRfTDJvtFK89nhV4kScyDgN4buk1rbMen/cVnLdms0TcG3Kp9facAgUCUCTyjYpAeX07lxXJRdI8eRWA4pKhD8DoWAp0C/TYps82ja9w2lJhRSBIGPp9g3xiuPJ4xKbWkKdddV9FWo1AGSEQI5EfBz/OgJdUxOZXdzs28wnrO6OWFZJQgsqijvkqL7XyS9Z4DkrZBK7A49g7wkxT6SadxHmgJzfwWhJw5WQCA/Ah5AFzmh3p9f0V09bRCM559dvbCw7ATmVIC3S5F9L03ancoOgvgGEoieE7yfeBbSVOb3/qM72mPKM3uq0sgEgdESWFfFR/b3qwsOd/lgPO4+xqpFwAOsL5Ui+12atIepjExdwdXCWutorw/uL9f2ojFo8FKaQUWHqjA3AjAIVI2AJ1uJWNH7ubtsIzZTJDFpS0HAd2drFBiJT/5bSF+W3HDAqk/g2GAV3qH0qc4NtyhjpLXp2cdmCQZHcgiUhcC6CiSyv19VcOD0ABQMeMTuN1T5/t2IyD7XK+2/5edg6dPS+pInlJpLwupHwK/2RfebD0QxrKAMvXa2Xss9hSoGgaoSKNsYAB+0vY61bssZA1CdPW9ahZr1uf+T8jFOWkrCmkXArx93Owf0WrZnNzz9HgF8uFuGAcuOGbCe1RAoMwG/7hoxt8QXjmQIpo2+SVP0I4lg+CTvQ2APrfPI/zT2ijL5mf7i0jjJPbVYswhcGKxueJIwv1LUqzXRbfnlwYBIDoEyEnhCQXXbv3st87PVouwaOe5VbrflhxQVCH5zJTCzvEX3s9b2diNvvVyjwVkVCXxaQbf2iST//xqppHsGHg8WsEukANJCoKQE/q64khxQrTS+SBcxuvpd8ht9zveJkjIlrIkJfEtfW/tP5P/Nyhe+k5u4aL7VhMDqqkdk3/HEfIltOaWMOHfaZRN7JyEEykvgOwotuu8XceE9N0Uc7hLGyk1gCoV3rxTdxx5WnoXLXTWiGyKB+VVWZB96IBKbT2hR50XcBUViJi0E8iAwVk4i+77T3i15Mpe87ONyFI3B6d3N51d+sPIS2FihRbftS8qzdnmrRGQjIDCTyozsR09HYtwn6PzkiHPSQqDEBCZXbGl+++JvypfHNKvvlp/npMjB3Z72VeX9mcRkXIJQQjtWMbVvrySf9ythPQhptAR8nkqy77TS+LyQ2I5VylbGJP/3TeyZhBAoPwG/T51kv+9M44GzHuCV1tZUxoekTr9pvnsMz5elKSWsHAR80n5EimxP7w8zliN8oigRgekVS2Q/CvUA/D3o3F2WGATqQmCMKvKyFDnAWmn/o3yehCVifi7si7W7elt+8vrveDx/ODZ6An48E92uDK4e/XYrYwTzBvel0CvOHm0a2VFXLCMhYoJABgLHKm/kGGhP69H7J0r+Fa5+Y2Pcivd4m5uk9vxFfP6TylhCwkZH4LMqOrJt/b4/j3JGt73KXHJ00jJf0ycx33l0M5+YIubuRgwCdSKwryqzuRQ9FszAF333ilke8f0X6S7JI7k9TmABaWnpvZJnhBuGbaRCPLOgJ5DZX/K03dhwCUQHaF6q8B4bboiUVhEC0dkffe5JbNFJKmilJkZLwgoR2EuxRu7YqpL2QdXLd6Oe7wMbHoEzVFRkH9l9eKFRUsUIHBjcl46M1C/6/DOP0c+R+EgLgWEQcA+Z78IiJ+0qpb1adeP1smHsSf8r45rgvrT+8EKjpIoR8My7kXONp55ObC8qZcT5NIk9kxAC1SKwoMJ9VIocD1VK6/EKv5MWkrBiCXg2tsi+Ee3mLTZ6vJeFwKwKxONDIvvSxpHgHwk6z3MSlEicpIXAMAisoUKyvJsfOVBHlfZ51dHvm083DKANLeNe1TuyfT3bGwaBTgKf04LIfvSa0s/R6aTf9zuCBSzSzxnrIFADAh9SHV6QIgdeEWndjew3DHznXoR/z2roNxM8kBHLl8DtchfZZpxX8+VfF2+XBPcj/3RwyK5X6siOumrIO4khUE0C6yps/wZ75NjIM+1FKrs10ZAnDbqqwFh8kvFrjFh+BKLnVfjnx74unlZTRaLnlB9GK39RsJBtowWQHgIVJbCs4v63FD0Is6b/icqcuoOZR/HvID0gZfXfLb+7Do+S5pGw7AT+JhfdOPdatk32IvFQMwJ/Du5D3rfeG2Xwq2Ah+0cLID0EKkzAz8l/JvkC2evknddyX9w3k/rZTFr5PamImQRdD88Z8DWpswGiRViAwNFKG9kvQq9uBeIgaTUJeB6PyP7jtH6k5xuFkH1VqSMFnR7yTmII1IPAKqrGZVLkWEma1m/ieNKeWaSktrgS+lhMWkY03W3yvWnSYEg3CYE9tSTC3L8DED55T1IqC+pAwG/a3SJF9h+nPTBN5f3KQKQgTxzkH7rAINBEAu9XpT3bXx49Aj6WfOH3bIFpzfEU+ZjiPPlfLm1wDc63oeoeOa867ToN5kXV3yLgHsfovuPz0VJvuUj+yXcS0cIYsJKcLynrSWAhVWsv6SLJd/BJj6EHlfYEaSvJLf08bAo52VnyVLJJ44ike0V+PS5hNglLRmAGJYtOsnZOMtekqjGBrVW3yLHZSvv7QUx6verj5Q9Icw9y0Lb+m/p8QNt3PkKgyQQ8TmB5yS1wN6h98rf8+p6fqT8quUv9P9J/JR+0Rdjscrqf9HnJjYK87XE5/Jb0S+nVvJ3X0N8lqtOawXqtr/R/DeYheT0IrKdqnC1NHayOzycrSuFXAFvlnKgPrZZEkv8+kWEQgEA5Cbgxcr6U5FhOk+YG+faFCutPYFetjvL9l/K4QYk1i8Baqm7a145Py4oqOtuQd2oeA2SlTn4IFEvgI3Lf6nGIXoiSpPeJZ7Fiq1Bp7+5V9eOTJCzb05ykPL16bCsNhOC7Eviolj4vte8DST8736JdvQYWLp6icHcDYhCAQLkJuDtxT+lpKelJJZLO4x8OkmaUsEkJ/FGLIjxbab8zqSuW1IzAFKrPgZIfFba2e/T/PnkxuT4YhA/8+fIqHD8QgEChBOaR96OlPN5e6HaSekC+t5d4lU0Q2mwVfe7GK8myo5R3qjZffKwPgXerKv+UkuwHvdLcqPxu4Odi0fkAHFR42sFcIsUJBCCQloAf3RX5s8dXyv8aaYOrab7zVK9eJ/FByy9W3iVqyqWJ1VpYlf6F5EG0g7Z9v/X+wTKP9cnNfDcfDcrPH8bkFgGOIACBYRDw8+WtpXukfieZtOvcpXm8tICETTbZOwQhzViAFv+Xlf8waQ5gVpKAe8XGSsdJ3pat7Zrl/w7yk7udI4/RoM7IPQocQgACwyDg0ebfltIOQBp0rvBdil8bnFZquv1AAAbxGrTej13PlD4j+ZEOVk4CUyqspaRtpCOlu6VB2zay/ufyFza3+gfZh5TAP0AQNY82Pj2aifQQgEApCCysKL4vbVlQND4B7iGdXJD/KridXkFeIS2bY7Ce+Ol+6UnJvw2BjY7AdCrac3/4FzznlzzArwjzoFIfpx7Lk7u5kXCNFGmNOO3Dkh8hYBCAQHUJrKPQ0xz/Sc8XF8u/Bz811fzM1r0iSXmRDlbt+8CF2nfymj205zG4Rcod1MFN3tMrKyAAgSoQeLuC3FHyj9O0n3zy+uw7l19Jc0lNtNbdW1488VPMflo2rn7UPpRHaT4B/EdKA+DQJh7R1BkCJSMwr+LZSHJjfkXJx3TU3JV5iOSu5TTngkF53G29u9TE19x2LojpIOasL2ZfLpqrXwct6pGCXE9qG2hR2kp9bVJ3LIEABIZAYGGVcarku+z24/cOff+ElMaWVCYPPGv3l+fnW+TbjZWm2W6qsN+WyJMlvurF041v7ydJxu8pWb72B7lLs0N5p/5cvqHgDQIQGEDAF3jfVfc7Zr89wEe/1RtqZdqewX4xtdb5DaRl+gWQ0zr/YNKi0kqSe0f8eVZpFLadCs3rtbAWR/73Pwaqwme89o1VR7FTtspcUB+ekdIAcyNgr5Yj/kMAAoURmEGej5WSHqcfzBCJX2/aRXo8UF7SuJzOF8MfSXldkN1tur70Xeli6VGpVzyPaN3fpP2l90rD6nJdXWXdJfWKi+XNYuO5eA6XZpFGbj7Ys+yAP1Z+nzQwCEAgfwIfkMv/SpFj9PIcwvCENH4X2SerSNlJ0/pivJOUdlDx4srrhsRDUtIyO9M9qLyHSotJRZt7JX4ndcbA92Yx8Wui7yl6Z4v497OHM6QsO+Ilyr9ApFDSQgACfQn4eDpZSntcztbXe/KVKyjpBRniGBT/9fK9XvJwJhujtMdLeTZMPIPfb6WFpaLNY69ulQZxYX29GPnCv6nk623pzCeLu6QsO51b9H5GiUEAVeW3tgAAHOFJREFUAukJ+Fj8tpT20VzrGPaFO0/bTM7ukFr+8/5/inz7WX0vc3f93lKR79jbt39VMW2vhLImMtfFYwNulvLmiL/yMH1R2/ePknvxSm9rKEKPSMy6A50nH0uUvrYECIFyEXAX8f7SU1LWY9D5F5bytmnk0BfhrI2TXvV7Qb79LN9jHtrNvSF/k3rly3v5hSprvvYACvr8dvldX/qN9KyUdz3wN3ymz2s7ni/58VZevXByNRzbRsV4cF/WHccNCU8E0q9Fr9UYBBpPwA3vYyWfOLIed638d8pXkeaL43FSHueKVszt/++Tb98hu7vUPRn3S+3rh/HZMfgHfoZl/snX9aQDpPOku6Vh1JMy0nN2j9G10knSvtJYydtxZOYDJqvtJgf+UYs8zM/p/BzzaOlCyScMDAJNJ+CL2kbS1tJyBcDYXT5/WIDfTpd+hcmDgP2/CLtKTheXRjVa+kmVvaH0T2kUNp0KnUuaeYKmGkUQlPkmATfS3VPjHjDvG5YbULWz76tGebcM75JP+32/NK2EQaApBDzK3Bd7v/pzp5T3sdXu76/y72fMwzLfdGwr3Su1x1GXz36tcBkJg0DpCeTRA+BK2s/+0t7+UoB5cMSV0o3STdJtkg80P/90q+oVCYNAFQj4Ls3dfrNO+O/n1WMmyBf+FSW/UjcMc1fkDpLvVIZt06vAr0vuffBYgTrZHarMSpLPTRgEGkNgF9XU3fZ1ac1TD7ZlHfcBd0luX5Kz0iKK4w81PGe4ThgEGkfgk6qx79jreOKkTmzXqu8DV+nYXLKEZ6Wxiuk6qep82+PfsoScCQkChRNw99ftUvvBwGd4sA+Mbh9wN/8+UpkHhvl9+s9LD0vD3lceV5l+xGg9kVP5Hucwg4RBoHEEZlGN/ygN+0CmPJizD0y8D5yh49Bd7VUxnzsOlV6WityWHq3/BWk+qdPm14KdpCukLDHs0emY7xBoCoG3qaKfk9y6znIQkRd+7APxfeBWHXcbS1W1pRX4WVLe2/4e+dxM8vlpkDnN5lLatxYeVN5pBxXCegjUmYBnOPqlxADB/E9meZ8c8Vf9beRR6G54TyHVwdZXJf4t5bFvXiY/86SAMq/yXJ4yhq1SlEcWCNSOwFjVKO1BlMfBj498TqJwLCdHP7/eWvKz9LrZlKqQJx3zq3Vp97/rlTfLM/kZlf+GFOWfqTwYBCAwgcAG+n+JlPZAJh/s2Af+tw+8oOPoeGmslKRLW8kqbXMp+mOk6PZ3w2GMlNUWlYOnpUj53kY8BshKnvy1I7CeanSi5AMkckCRFl5N3gf8KM0TY+0q+fFa08znjej296RDeZnfpoiW/768CscPBOpGwKN+/czSvQL+PYDowUV6mNV9H/BrfGdIPk66jVrX4sbYV1XTyPb2IGTPwJiXeRbD6KOIPBsgedUDPw0nUJZBQj6Yjpgg39G4he+BP9biEgaBphG4WxX2a2otXa3P7inDJpvs3UEIf1Z6N6DysufkyG8nfCLgcKlAWpJCYCgEytIAaK+sW+unTJCX+5et/DrQcpIPojGSGwnuNfC6maSpJKwYAh58FRk45d9leLaYUGrh1Wxekvw7Fr4o+WJyrzReunPC///q/yMS1p3AvN0X91x6Ts816VfYZ6QBsEj6osgJAQhAYDQENlSxke7Ws0cTJqU2iMC1wX1yjQLYrBOM4boCYsAlBDIReHum3GSGAAQgMHwC7vWLWBG9KQ9GAlDaSC9a0DXJIZCOAA2AdNzIBQEIjI7Ay8Giow2GJO79CDJi/oE0DAKlIkADoFSbg2AgAIEEBJ5OkKY9SRFvTUR9+ieYMQiUigANgFJtDoKBAAQSEHggQZr2JGu1f8np89pBP/cF05McAoUToAFQOGIKgAAEciZwc9DfR4LpkyTfNEmitjS3tH3mIwRKQYAGQCk2A0FAAAIBAv8KpHXSJaU8fxXRDYrF7Dhg0ZgDrkkKAQhAoBgCvAZYDFe8pifg5++RV1Od9t+S57TIap5z5CYpUr6nbp47a8Hkh0DeBOgByJso/iAAgaIJ3K8CfEGPmCcS+2kkQ4+0P9dyT0wWMf8K4UORDKSFwDAI0AAYBmXKgAAE8iZwQgqHn1Oe/aS3pcjrPPtLO6TImybWFMWQBQIQgEC+BHgEkC9PvOVDYEG58bTTka74VtrfKZ+nE09qsyvh76VW/sh/z1kQfWUwaVykgwAEIFAoARoAheLFeQYCxylv5GLcnta/ObKnNE+f8v2bA3tJT0jteSOfj+rjn1UQGCmBNF1hIw2YwodOwA2AswOlnqO0HwykJykE0hJYWhlvkLL8qJkH6F0h/UfyjzLZFpA8ZmBlKctjUt/9249/3AmDAAQgUDkC9ABUbpM1KuBDVNvIHfkw0363UVuCykIAArUjQAOgdpu0VhXyj+zcLg3zwp6krNsU0/S1Ik1lakcgS/dW7WBQIQhAoHIEnlXEW0kvlShyx+KYnitRTIQCgUkI0ACYBAkLIACBihG4SvH+n+Q781GbY/i8dM2oA6F8CEAAAlkJ8AggK0HyD4vA11VQku75ItP4zQIMAhCAQC0I0ACoxWZsTCW+rJq+JhV5ke/m228T7NEYylQUAhBoBAEaAI3YzLWq5BaqzdNStwt1EcueVFkfqxVBKgMBCEBABGgAsBtUkcASCvqfUhEX/Haf/1AZ0V8GrCJPYoYABBpIgAZAAzd6TarsQc4ekPew1H7RzuOzf9znsxIDqQUBgwAE6kmABkA9t2uTauX38XeT7pSyXvzHy8eu0nQSBgEIQKDWBGgA1HrzNqpyvlsfKx0ueerfpI2BG5X2J9I6EtOnCwJWDwJZ5tCuBwFqAQEINIWAR+pfNEGu8xzSspKf4c8lzSTZPIDQjw08h78bCo9JGARqR4AGQO02KRWCAAQSEnhU6S6eoIRZCk3m3gX/EJEbI7NIM0uTS/5Roeek56U7pQclN2YwCGQiQAMgEz4yQwACEEhFwBf2FaQ1pTWk5aXFpWmlQfaKEtwrXStdMUGX6f+LEgYBCEAgNwKMAcgNJY4aTmAq1f/D0pGSHzEkHYOQJJ1/E+EU6VOSew8wCEAAApkJ0ADIjBAHDScwn+rvKYLvkZJczLOmeUHlnCytL2EQgAAEUhOgAZAaHRkbTsBd+r+WXpWyXtTT5r9IZa8lYRCAAATCBGgAhJGRoeEE/HbBEZKf1ae9cOed7xzFspyEQQACEEhMgAZAYlQkbDgBj+LfTsr7+X5ejQG/TfBjyRMjYRCAAAQGEqABMBARCSAw2dxi4LvsvC7WRfq5RXG+i20GAc+MhUEAAhCAQHoCHmx3vbRBehdDzbmkSvNrgzsOtVQKKx0BGgCl2yQEBAEIVIjATor1bMk9AFWyaRSsxyn8QvKcBBgEIACBSQjwCGASJCyAwBu/CXCwOBTZVT8s36eqHm4QYA0jQA9AwzY41YUABDIT8GA//zjQVzN7KoeDjygM92JMV45wiGJYBKYYVkGUAwEIQKAmBDyS/osF1cVzBoyX/CaBf6vAI/enlvxDRfNJC0lF3K2Pld8/SJtKfn0RgwAEIDAZjwDYCSDwFoG99DHPrnn/yM+ZkhsUK0q+2Pcz9z4sLW0vHSc9LuUZz4ny5zIwCEAAAjQA2AcgMIGAu8pfk/K44F4uP5+RZpCyWOv3Bf4sJ/6FwDxi+0aWgMgLAQjUhwA9APXZltQkPQG/OveMlPUC+w/5eF/6MPrmXFZr3Y2fNUY3cjboWxIrIQCBRhCgAdCIzUwl+xDwXfZVUpYL6yPK71kCh2HrqJAbpazxVu3VxmGwpQwINIoADYBGbW4q24XAgVqW5WLqEfZzdvFb5KJp5dxvKmR5LODeBAwCEGgwARoADd74VP2NH9DxSPw0DQBffL8tjfJ1661V/osp43edt5AwCECgoQRoADR0w1PtNwhcoL9pLv5+jv65kjD0zwE/mbIedyvfNCWpB2FAAAJDJkADYMjAKa40BDzqP83F33f+25amFv8LZE39e1ZKU589SlYXwoEABIZEgAbAkEBTTKkI+F34q6U0F8w9S1WTt4LxyH5PNBStk+camOUtN3yCAASaQoAGQFO2NPVsJ7CRvkQvlE7vyXnKbG6cpKkXvQBl3qrEBoGCCNAAKAgsbgsnML1KWEZaWfJP9o6VVpIWkgZNg/4XpYleKG9TnhmkMpt7NvxWQrRudyoPvxooCBgEmkSABkCTtnZ16+oLmy/u+0hnSQ9I/S5ynu/+Ful4aWdpCalli+qDB/H1y9+5zs/9/Zy9CuYG0NNSZx0Gff9YFSpHjBCAQH4EaADkxxJP+RNYWC6/K90vDbqADVp/k3x8Q/p5Cl+/VZ4q2e4KdhCPzvWnVKmCxAoBCGQnQAMgO0M85E9gMbn03Xv0Tr3zopbH95cUx4L5V7FQj54o6B4pUv/nlb7sjzgKhVY356OcoKJuLKkPBCBQPAFfuA6R/iN5kpsynMPcEPHFtEr2goL9fjBgs98omIfkEIBAhQnQA1DhjVez0FdRfW6WInetw0i7XEU5z6y4nwnyPLKidSXsLgTK0HruEhaLIAABCExEYAd9u1haaqKlo/9yrUK4cfRhpIrgKeU6KZhz7WB6kpeYAA2AEm8cQoMABCbz6H53VR8lTV1CHr8rYUyRkE6NJFZavy0xdzAPyUtKgAZASTcMYUEAAm8Q+KH+lnkSmnMrvp0uUPwe3JfU3CB7V9LEpCs3ARoA5d4+RAeBJhM4QJXftcQAnlRsN5Q4viSheTDgVUkStqVxLwBWAwI0AGqwEakCBGpIYBvVae+S18sXTk8AVHW7JliBJYPpSV5SAoOmwyxp2IQFAQjUmMA7VbcqjDa/oybb4N/Bemym9J5/4Qrpn1JdOKgqzTIaAM3a3tQWAmUnMJUCPE6aJqdA3U0/XvKId7/25gFsc0l5nPvqcuHztMkRm0+J2x/N/FffT5NOly6V/OolBgEI1IAA8wDUYCNWqAr7Ktas7+77zvQL0iI96j2llq8rHSh5QqG05X1AeetgK6kSaRl05rtVvnaXZq8DGOoAgaYToAHQ9D1gePWfR0U9K3VeVJJ+H6+80ZnqPKp9U+nKYLnPKP1MUh3MExklZZw0nd8sOESasw6AqAMEmkqABkBTt/zw6/1jFZn0AtOZ7qfKO13GkHdUfl+4On13+75vxrLKlH35hHXuxmHQMjeUzGqaMlWYWCAAgWQEaAAk40SqbAQWUvYXpUEXlM71ryvPXtmKnij3O/Rt0GMBP+v2Y4S6WJENgNb28k8vr1cXYNQDAk0hQAOgKVt6tPU8SMW3LhaR/7sUELZ/9OYHku9e22PxQMI9JQ9UrJONUWXa61nUZzfWfiTVjZ+qhEGgngRoANRzu5apVp6P5C4peuGJzmMfrbMbAutKW0hrSHW9cHkcxINSlH/a9H51cGEJgwAESk6ABkDJN1ANwvNFNnox8St4fq0Py4fAfnIT3QZZ0j+k8lbKJ3S8QAACRRGgAVAUWfy2CPxCH6IXE4/cx/Ij4AGU10vR7ZAl/dMq7/35VQFPEIBA3gRoAORNFH+dBDwTXeRC4vf8sfwJ+JW9C6XItsia1gM/aQTkvy3xCIFcCNAAyAUjTnoQ8Lv0nlY2ciH5VA9fLM6HwIfk5gjpb9K10u2SB0BGtlEkred+WF3CIACBkhGgAVCyDVKzcN6r+kQuFm4szFEzBlWpzrwK1NtrnHSx9KoU2Xb90j4uX4tLGAQgUCICNABKtDFqGMqXVad+F4bOddfUkEFVq+TfBPiq5B6Czu2U5vu/5CfrZE5ygSUl4NdvMAhAAAKjIhC9m79oVIFS7iQE7tcST/e7lLSt5IZAFvMkTL/M4oC8MQI0AGK8SA0BCORLYPagu/uC6UlePAE/Cvit5Av4t6WXpbT2SWXcLG1m8sUI0ACI8SI1BCCQL4FoA+CJfIvHW44EXpCvfaU1Jc/TkNYOV8bofpG2rEbnowHQ6M1P5SEwEgJLqFRfKPwLfFsGI/C741i5CVyl8FaSLkoZ5tzKd1DKvGSDAARyJMAgwBxhNtiVp5vdRLpQ8pzwaQaJOc/2ElYNAlMrzD9Kaba1HyssU41qVjdKegCqu+2IHAJVIeCJXjx637+iN1ZyYyCtLZI2I/mGTuAllfhx6fwUJU+uPAekyEcWCEAgRwL0AOQIs2Gu3JV7spTmDrBXnj81jGEdqjujKuFX/Hpt017L3VPknyrGCiJAD0BBYHELgYYT+LDq75O+f0kvT/P4AaxaBJ5RuB7r4Rn/Iuaeoi9FMpAWAhDIlwA9APnybIK3vVXJLM/5e90RennWd82bwL+sdfyCAuu3bbute055ZitrhaoeFz0AVd+CxA+B8hDw+eRIyc9uszzn71ej2/qtZF2pCfj3BaI/5OSZATcrda0qHBwNgApvPEKHQIkI+FxytPSZgmPymAKsmgTcK7RbitA3T5GHLBCAQA4EeASQA8QGuPih6titCzfPZf5luikawLLuVbwguK94ZkEeA9R9r6B+pSRAA6CUm6VUQX1O0eR5oe/m6z8qY/5S1Zpg0hLwANFu27jfso+lLYx8vQnwCKA3G9ZAAAKDCbxTSX48OFnqFHco57ckzyx3X2ovZCwTgXMVzIPBgNYIpid5AgJ0pyWARBIIQKArAc/0doI0Tde1sYV3Kflp0mXSeOlR6WEp+uqYsmAlJ+BZ/n4vRV7xW6vkdSI8CNSSAI8AarlZc6nUN+SlX7ftoHWvKf+xku/usWYR8LTQg/aP9vV+HbCoN0uaRZ7aQiBAgAZAAFaDkvp5vE/K7SfpyOe/Kq8fH2DNJDCzqu0GYGSfma+ZqIqrNY8AimPbVM/LqeK/bGrlR1Rvn0TdXX6DdJbkC3PRtqcK8DvaaexAZfqm5NfCsGYSeErVvlsaE6j+Ykp7fyA9SSEAgYwEoj0AkRY9aWN3QEl4PajtvVXGbT4o+1xK8IKUJJ72NK8oz7aDnLO+MQTOUU3b949Bn/3DQliOBHgLIEeYuIJACQj4B3hOlD5fYCzby/c0Kfzvrjy/SZGPLPUkEH2rY4Z6YhhdrWgAjI49JUOgKAIeLHWYtGhBBaSZ7c9TBDsmDAItAs+0PiT8TwMgIaikyWgAJCVFOghUi8BUCnfnAkJeXj6XCPr1nd6Xg3lIXn8CfowUsTS9ThH/jUtLA6Bxm5wKN4jAugXU1a9vRW2cMkRP9tEySF89AtFBpM9Xr4rljpgGQLm3Txmi86QdWDUJzF5A2GsHfd6m9McE85C8GQRmClbz6WB6kg8gQANgACBW89pNhfeBB3KO3WMLVgn6PEnp/b43BoFOAgt2LhjwPTpmYIA7VtMAYB8YROAmJbh7UCLWl5LAeTlHNY/8zRb0eXowPcmbQ2CpYFX9iisGAQgMmcAXVN6gd3RZXy5GT2qb+X39PM0/yBLZzu6BcK8BBoFOAnNogSeCiuxPzoPlSIAegBxh1tiVZ/Y7vsb1q1vVXlKFtpE8O2Ce5ul/I3ajEvsEj0Ggk8BYLYg0Dh9T+kc7nfA9GwEaANn4NSW3T+LbSV+TPIUnVl4C1yq0sdKfCwhx+qDP6EQvQfckrzCBDwRjvzmYnuQJCPBbAAkgkeQNAu6uO1j6qbSO5AE8NCAFoST2ouL4l3RdgfFMG/TNa1tBYA1JPrXquVmwrn8Ppid5AgI0ABJAIslEBPw+97kTLeFLUwi4kRExn+gxCHQS2FgLooNJL+h0wvfsBLiDy84QDxBoCoHoa1hzNgUM9QwR8KPEiHlMy6WRDKRNRoAGQDJOpIIABCab7IkghKWD6UlefwIbqoorB6v5F6XncVIQGskhAAEI5ElgITmLvLbltIvmGQC+Kk3Aj5w9TiW6D21V6VoTPAQgAIEaEPBrW89JkRP4rjWoN1XIh8BewX3H+5nns4gOPs0nWrxAAAIQgMBEBPwsNtIAuGSi3HxpKgF3+/tZfmTfcVq/dYRBAAIQgEAJCHxHMURP4uuXIG5CGB0BDwa9Q4ruNy8rzxgJgwAEIACBEhBYTzFET+RXKU9k1rcSVJMQciIwg/xcIUX3Gac/OqcYcAMBCEAAAjkQ8ECu+6XoCX3nHMrGRbUIzKxwL5Si+4rT+3HB4hIGAQhAAAIlInCIYome1N2d694DrBkE/LsRnpY6up+00h/QDEzUEgIQgEC1CCyjcF+TWifrpP8fVZ53VKuqRJuCwAbK4x+iSrpfdKYbr7zTpSiXLBCAAAQgMAQCp6iMzhN3ku9PK99GQ4iPIoZPwNP7/lJK0zhs7TuvK78nC8IgAAEIQKCkBFZUXGlP9M7ntwmivy5YUhSND2sGEfiq9IjUupCn/f+9xtMEAAQgAIEKEDhSMaY90TufBxPuKE0lYdUjsIJC9i+E5nHh9/7gOSamlDAIQAACECg5gTkUn5/rZ2kEOK9nezte2lxaQMLKR8DP5N8lfUL6uXSLlHW7t+e/U/7mk7AhEuDd3CHCpigI1JDAR1UnjwfI81zi6YbdKPCrYNhoCXga3hkld/MXZW5Eri3dXFQB+IUABCAAgWIIHCa37XdzfIZH0n3gKe07qxazW+IVAhCAAASKJuDntmdLSU/6pIOV94EHJQ8mxUZEIM9uuxFVgWIhAIESEPAzYv9u++oliIUQyk9gvEL0fAG3lT9UIoQABCAAgUEEZlUC//ofd/gw6LcP/En7yOyDdibWQwACEIBAtQi4J+BMqd8FgHXN5OPpoHeX6HkWBAwCEIBAHQn4BL+n9KrExR4G3geulN4jYRCAAAQg0AAC66qOeb8vToOiWg2Kh7QP7CBx19+AA54qQgACEGgnMLW+7CM9I3Hxbg6De7W9d5X4UR9BwCAAAQg0mYBnDdxf8gQ/NATqycA/5HORtL3khh9WcgJ0y5R8AxEeBGpGwHeEnj1wO2k9ibnfBaHC5tkaL5fOlU6Q7pKwihCgAVCRDUWYEKghAU8vu47ksQLLS0tLC0uTS1i5CLjXxj/6M17ylL0e23GVdKn0vIRVkAANgApuNEKGQM0JeO75mSV+JXD0G9oX92cnaPTREAEEIAABCEAAAhCAAAQgAAEIQAACEIAABCAAAQhAAAIQgAAEIAABCEAAAhCAAAQgAAEIQAACEIAABCAAAQhAAAIQgAAEIAABCEAAAhCAAAQgAAEIQAACEIAABCAAAQhAAAIQgAAEIAABCEAAAhCAAAQgAAEIQAACEIAABCAAAQhAAAIQgAAEIAABCEAAAhCAAAQgAAEIQAACEIAABCAAAQhAAAIQgAAEIAABCEAAAhCAAAQgAAEIQAACEIAABCAAAQhAAAIQgAAEIAABCEAAAhCAAAQgAAEIQAACEIAABCAAAQhAAAIQgAAEIAABCEAAAhCAAAQgAAEIQAACEIAABCAAAQhAAAIQgAAEIAABCEAAAhCAAAQgAAEIQAACEIAABCAAAQhAAAIQgAAEIAABCEAAAhCAAAQgAAEIQAACEIAABCAAAQhAAAIQgAAEIAABCEAAAhCAAAQgAAEIQAACEIAABCAAAQhAAAIQgAAEIAABCEAAAhCAAAQgAAEIQAACEIAABCAAAQhAAAIQgAAEIAABCEAAAhCAAAQgAAEIQAACEIAABCAAAQhAAAIQgAAEIAABCEAAAhCAAAQgAAEIQAACEIAABCAAAQhAAAIQgAAEIAABCEAAAhCAAAQgAAEIQAACEIAABCAAAQhAAAIQgAAEIAABCEAAAhCAAAQgAAEIQAACEIAABCAAAQhAAAIQgAAEIAABCEAAAhCAAAQgAAEIQAACEIAABCAAAQhAAAIQgAAEIAABCEAAAhCAAAQgAAEIQAACEIAABCAAAQhAAAIQgAAEIAABCEAAAhCAAAQgAAEIQAACEIAABCAAAQhAAAIQgAAEIAABCDSMwP8H2Wb1dD7BQSkAAAAASUVORK5CYII=;" vertex="1" parent="1">
          <mxGeometry x="30" y="179" width="210" height="210" as="geometry" />
        </mxCell>
        <mxCell id="CaOUmlFaGnciyHe8es5i-11" value="ASR 1000X&lt;br&gt;HA" style="sketch=0;points=[[0.5,0,0],[1,0.5,0],[0.5,1,0],[0,0.5,0],[0.145,0.145,0],[0.8555,0.145,0],[0.855,0.8555,0],[0.145,0.855,0]];verticalLabelPosition=bottom;html=1;verticalAlign=top;aspect=fixed;align=center;pointerEvents=1;shape=mxgraph.cisco19.rect;prIcon=router;fillColor=#FAFAFA;strokeColor=#005073;" vertex="1" parent="1">
          <mxGeometry x="770" y="300" width="80" height="80" as="geometry" />
        </mxCell>
        <mxCell id="CaOUmlFaGnciyHe8es5i-12" value="PAC LONDON DC" style="whiteSpace=wrap;html=1;aspect=fixed;fillColor=none;verticalAlign=top;fontStyle=1" vertex="1" parent="1">
          <mxGeometry x="328" y="80" width="180" height="180" as="geometry" />
        </mxCell>
        <mxCell id="CaOUmlFaGnciyHe8es5i-13" value="PAC NEW YORK DC" style="whiteSpace=wrap;html=1;aspect=fixed;fillColor=none;verticalAlign=top;fontStyle=1" vertex="1" parent="1">
          <mxGeometry x="320" y="385" width="180" height="180" as="geometry" />
        </mxCell>
        <mxCell id="CaOUmlFaGnciyHe8es5i-14" value="GCS01" style="sketch=0;points=[[0.5,0,0],[1,0.5,0],[0.5,1,0],[0,0.5,0],[0.145,0.145,0],[0.8555,0.145,0],[0.855,0.8555,0],[0.145,0.855,0]];verticalLabelPosition=bottom;html=1;verticalAlign=top;aspect=fixed;align=center;pointerEvents=1;shape=mxgraph.cisco19.rect;prIcon=router;fillColor=#FAFAFA;strokeColor=#005073;" vertex="1" parent="1">
          <mxGeometry x="270" y="390" width="50" height="50" as="geometry" />
        </mxCell>
        <mxCell id="CaOUmlFaGnciyHe8es5i-15" value="GCS02" style="sketch=0;points=[[0.5,0,0],[1,0.5,0],[0.5,1,0],[0,0.5,0],[0.145,0.145,0],[0.8555,0.145,0],[0.855,0.8555,0],[0.145,0.855,0]];verticalLabelPosition=bottom;html=1;verticalAlign=top;aspect=fixed;align=center;pointerEvents=1;shape=mxgraph.cisco19.rect;prIcon=router;fillColor=#FAFAFA;strokeColor=#005073;" vertex="1" parent="1">
          <mxGeometry x="270" y="465" width="50" height="50" as="geometry" />
        </mxCell>
        <mxCell id="CaOUmlFaGnciyHe8es5i-16" value="GCS01" style="sketch=0;points=[[0.5,0,0],[1,0.5,0],[0.5,1,0],[0,0.5,0],[0.145,0.145,0],[0.8555,0.145,0],[0.855,0.8555,0],[0.145,0.855,0]];verticalLabelPosition=bottom;html=1;verticalAlign=top;aspect=fixed;align=center;pointerEvents=1;shape=mxgraph.cisco19.rect;prIcon=router;fillColor=#FAFAFA;strokeColor=#005073;" vertex="1" parent="1">
          <mxGeometry x="278" y="97.5" width="50" height="50" as="geometry" />
        </mxCell>
        <mxCell id="CaOUmlFaGnciyHe8es5i-17" value="GCS02" style="sketch=0;points=[[0.5,0,0],[1,0.5,0],[0.5,1,0],[0,0.5,0],[0.145,0.145,0],[0.8555,0.145,0],[0.855,0.8555,0],[0.145,0.855,0]];verticalLabelPosition=bottom;html=1;verticalAlign=top;aspect=fixed;align=center;pointerEvents=1;shape=mxgraph.cisco19.rect;prIcon=router;fillColor=#FAFAFA;strokeColor=#005073;" vertex="1" parent="1">
          <mxGeometry x="278" y="172.5" width="50" height="50" as="geometry" />
        </mxCell>
        <mxCell id="CaOUmlFaGnciyHe8es5i-18" value="" style="endArrow=none;html=1;rounded=0;entryX=0;entryY=0.5;entryDx=0;entryDy=0;entryPerimeter=0;exitX=0.833;exitY=0.21;exitDx=0;exitDy=0;exitPerimeter=0;" edge="1" parent="1" source="CaOUmlFaGnciyHe8es5i-32" target="CaOUmlFaGnciyHe8es5i-16">
          <mxGeometry width="50" height="50" relative="1" as="geometry">
            <mxPoint x="190" y="90" as="sourcePoint" />
            <mxPoint x="240" y="40" as="targetPoint" />
          </mxGeometry>
        </mxCell>
        <mxCell id="CaOUmlFaGnciyHe8es5i-19" value="" style="endArrow=none;html=1;rounded=0;entryX=-0.049;entryY=0.616;entryDx=0;entryDy=0;entryPerimeter=0;exitX=0.88;exitY=0.25;exitDx=0;exitDy=0;exitPerimeter=0;" edge="1" parent="1" source="CaOUmlFaGnciyHe8es5i-32" target="CaOUmlFaGnciyHe8es5i-17">
          <mxGeometry width="50" height="50" relative="1" as="geometry">
            <mxPoint x="210" y="180" as="sourcePoint" />
            <mxPoint x="270" y="123" as="targetPoint" />
          </mxGeometry>
        </mxCell>
        <mxCell id="CaOUmlFaGnciyHe8es5i-20" value="" style="endArrow=none;html=1;rounded=0;entryX=0.009;entryY=0.351;entryDx=0;entryDy=0;entryPerimeter=0;exitX=0.963;exitY=0.696;exitDx=0;exitDy=0;exitPerimeter=0;" edge="1" parent="1" source="CaOUmlFaGnciyHe8es5i-32" target="CaOUmlFaGnciyHe8es5i-14">
          <mxGeometry width="50" height="50" relative="1" as="geometry">
            <mxPoint x="232" y="199" as="sourcePoint" />
            <mxPoint x="280" y="133" as="targetPoint" />
          </mxGeometry>
        </mxCell>
        <mxCell id="CaOUmlFaGnciyHe8es5i-21" value="" style="endArrow=none;html=1;rounded=0;entryX=0.037;entryY=0.323;entryDx=0;entryDy=0;entryPerimeter=0;exitX=0.905;exitY=0.775;exitDx=0;exitDy=0;exitPerimeter=0;" edge="1" parent="1" source="CaOUmlFaGnciyHe8es5i-32" target="CaOUmlFaGnciyHe8es5i-15">
          <mxGeometry width="50" height="50" relative="1" as="geometry">
            <mxPoint x="250" y="390" as="sourcePoint" />
            <mxPoint x="280" y="418" as="targetPoint" />
          </mxGeometry>
        </mxCell>
        <mxCell id="CaOUmlFaGnciyHe8es5i-22" value="" style="sketch=0;points=[[0.5,0,0],[1,0.5,0],[0.5,1,0],[0,0.5,0],[0.145,0.145,0],[0.8555,0.145,0],[0.855,0.8555,0],[0.145,0.855,0]];verticalLabelPosition=bottom;html=1;verticalAlign=top;aspect=fixed;align=center;pointerEvents=1;shape=mxgraph.cisco19.rect;prIcon=router;fillColor=#FAFAFA;strokeColor=#005073;" vertex="1" parent="1">
          <mxGeometry x="770" y="212.5" width="80" height="80" as="geometry" />
        </mxCell>
        <mxCell id="CaOUmlFaGnciyHe8es5i-23" value="" style="endArrow=none;html=1;rounded=0;exitX=1.005;exitY=0.563;exitDx=0;exitDy=0;exitPerimeter=0;" edge="1" parent="1" source="CaOUmlFaGnciyHe8es5i-22" target="CaOUmlFaGnciyHe8es5i-9">
          <mxGeometry width="50" height="50" relative="1" as="geometry">
            <mxPoint x="929.72" y="294.7199999999999" as="sourcePoint" />
            <mxPoint x="270" y="123" as="targetPoint" />
          </mxGeometry>
        </mxCell>
        <mxCell id="CaOUmlFaGnciyHe8es5i-24" value="" style="endArrow=none;html=1;rounded=0;exitX=1;exitY=0.5;exitDx=0;exitDy=0;exitPerimeter=0;" edge="1" parent="1" source="CaOUmlFaGnciyHe8es5i-11" target="CaOUmlFaGnciyHe8es5i-9">
          <mxGeometry width="50" height="50" relative="1" as="geometry">
            <mxPoint x="860" y="268" as="sourcePoint" />
            <mxPoint x="980" y="294" as="targetPoint" />
          </mxGeometry>
        </mxCell>
        <mxCell id="CaOUmlFaGnciyHe8es5i-25" value="BGP&lt;div&gt;AS 206433&lt;/div&gt;" style="text;html=1;align=center;verticalAlign=middle;whiteSpace=wrap;rounded=0;" vertex="1" parent="1">
          <mxGeometry x="843.5" y="210" width="80" height="30" as="geometry" />
        </mxCell>
        <mxCell id="CaOUmlFaGnciyHe8es5i-26" value="" style="image;aspect=fixed;html=1;points=[];align=center;fontSize=12;image=img/lib/azure2/networking/Virtual_Router.svg;" vertex="1" parent="1">
          <mxGeometry x="840" y="295.5" width="25" height="25" as="geometry" />
        </mxCell>
        <mxCell id="CaOUmlFaGnciyHe8es5i-27" value="INTERNET" style="ellipse;shape=cloud;whiteSpace=wrap;html=1;" vertex="1" parent="1">
          <mxGeometry x="990" y="389" width="100" height="61" as="geometry" />
        </mxCell>
        <mxCell id="CaOUmlFaGnciyHe8es5i-28" value="" style="image;aspect=fixed;html=1;points=[];align=center;fontSize=12;image=img/lib/azure2/networking/Virtual_Router.svg;" vertex="1" parent="1">
          <mxGeometry x="428" y="423" width="25" height="25" as="geometry" />
        </mxCell>
        <mxCell id="CaOUmlFaGnciyHe8es5i-29" value="BGP&lt;div&gt;AS 65043&lt;/div&gt;" style="text;html=1;align=center;verticalAlign=middle;whiteSpace=wrap;rounded=0;" vertex="1" parent="1">
          <mxGeometry x="430" y="430.5" width="80" height="30" as="geometry" />
        </mxCell>
        <mxCell id="CaOUmlFaGnciyHe8es5i-30" value="" style="image;aspect=fixed;html=1;points=[];align=center;fontSize=12;image=img/lib/azure2/networking/Virtual_Router.svg;" vertex="1" parent="1">
          <mxGeometry x="428" y="110" width="25" height="25" as="geometry" />
        </mxCell>
        <mxCell id="CaOUmlFaGnciyHe8es5i-31" value="BGP&lt;div&gt;AS 65042&lt;/div&gt;" style="text;html=1;align=center;verticalAlign=middle;whiteSpace=wrap;rounded=0;" vertex="1" parent="1">
          <mxGeometry x="430" y="117.5" width="80" height="30" as="geometry" />
        </mxCell>
        <mxCell id="CaOUmlFaGnciyHe8es5i-32" value="" style="ellipse;shape=cloud;whiteSpace=wrap;html=1;fillColor=none;" vertex="1" parent="1">
          <mxGeometry x="-10" y="100" width="280" height="420" as="geometry" />
        </mxCell>
        <mxCell id="CaOUmlFaGnciyHe8es5i-33" value="" style="endArrow=none;html=1;rounded=0;strokeWidth=3;dashed=1;exitX=0.867;exitY=0.107;exitDx=0;exitDy=0;exitPerimeter=0;" edge="1" parent="1" source="CaOUmlFaGnciyHe8es5i-28" target="CaOUmlFaGnciyHe8es5i-5">
          <mxGeometry width="50" height="50" relative="1" as="geometry">
            <mxPoint x="680" y="570" as="sourcePoint" />
            <mxPoint x="730" y="520" as="targetPoint" />
          </mxGeometry>
        </mxCell>
        <mxCell id="CaOUmlFaGnciyHe8es5i-34" value="" style="endArrow=none;html=1;rounded=0;strokeWidth=3;dashed=1;entryX=-0.039;entryY=0.606;entryDx=0;entryDy=0;entryPerimeter=0;" edge="1" parent="1" source="CaOUmlFaGnciyHe8es5i-5" target="CaOUmlFaGnciyHe8es5i-26">
          <mxGeometry width="50" height="50" relative="1" as="geometry">
            <mxPoint x="460" y="436" as="sourcePoint" />
            <mxPoint x="576" y="412" as="targetPoint" />
          </mxGeometry>
        </mxCell>
        <mxCell id="CaOUmlFaGnciyHe8es5i-35" value="" style="endArrow=none;html=1;rounded=0;strokeWidth=3;dashed=1;exitX=0.5;exitY=1;exitDx=0;exitDy=0;entryX=0;entryY=0.75;entryDx=0;entryDy=0;" edge="1" parent="1" source="CaOUmlFaGnciyHe8es5i-31" target="CaOUmlFaGnciyHe8es5i-6">
          <mxGeometry width="50" height="50" relative="1" as="geometry">
            <mxPoint x="453" y="117.5" as="sourcePoint" />
            <mxPoint x="569" y="93.5" as="targetPoint" />
          </mxGeometry>
        </mxCell>
        <mxCell id="CaOUmlFaGnciyHe8es5i-36" value="" style="endArrow=none;html=1;rounded=0;strokeWidth=3;dashed=1;exitX=1;exitY=0.5;exitDx=0;exitDy=0;entryX=-0.013;entryY=0.135;entryDx=0;entryDy=0;entryPerimeter=0;" edge="1" parent="1" source="CaOUmlFaGnciyHe8es5i-6" target="CaOUmlFaGnciyHe8es5i-25">
          <mxGeometry width="50" height="50" relative="1" as="geometry">
            <mxPoint x="640" y="182" as="sourcePoint" />
            <mxPoint x="756" y="158" as="targetPoint" />
          </mxGeometry>
        </mxCell>
        <mxCell id="CaOUmlFaGnciyHe8es5i-37" value="&lt;span style=&quot;font-size: 8px; font-weight: normal;&quot;&gt;VPN&lt;/span&gt;" style="outlineConnect=0;dashed=0;verticalLabelPosition=bottom;verticalAlign=top;align=center;html=1;shape=mxgraph.aws3.vpn_gateway;fillColor=#F58536;gradientColor=none;fontStyle=1" vertex="1" parent="1">
          <mxGeometry x="617" y="368" width="20" height="20" as="geometry" />
        </mxCell>
      </root>
    </mxGraphModel>
  </diagram>
</mxfile>
